# ffmpeg_stitch

Since the file size limit on my GoPro is 4GB and long videos can exceed 4GB, a
single recording is often split into multiple files. This simple bash script
will concatenate these back into a single file.

## Prerequisites

Install [ffmpeg](https://ffmpeg.org/).

## Installation

Copy `stitch` to a directory in your `PATH`, e.g. `~/.local/bin`.

## What this does

Consider the list of `.MP4` files copied from a GoPro:

```txt
-rw-r----- 1 v01ddweller v01ddweller 3.8G Apr  7 18:13 GX010076.MP4
-rw-r----- 1 v01ddweller v01ddweller 7.3M Apr  7 17:27 GX010077.MP4
-rw-r----- 1 v01ddweller v01ddweller 3.8G Apr 18 10:14 GX010078.MP4
-rw-r----- 1 v01ddweller v01ddweller 3.8G Apr 18 10:49 GX010079.MP4
-rw-r----- 1 v01ddweller v01ddweller 3.8G Apr  7 18:22 GX020076.MP4
-rw-r----- 1 v01ddweller v01ddweller 3.8G Apr 18 10:23 GX020078.MP4
-rw-r----- 1 v01ddweller v01ddweller 3.8G Apr 18 10:58 GX020079.MP4
-rw-r----- 1 v01ddweller v01ddweller 3.8G Apr  7 18:31 GX030076.MP4
-rw-r----- 1 v01ddweller v01ddweller 3.8G Apr 18 10:32 GX030078.MP4
-rw-r----- 1 v01ddweller v01ddweller 3.8G Apr 18 11:07 GX030079.MP4
-rw-r----- 1 v01ddweller v01ddweller 3.8G Apr  7 18:40 GX040076.MP4
-rw-r----- 1 v01ddweller v01ddweller 2.2G Apr 18 10:37 GX040078.MP4
-rw-r----- 1 v01ddweller v01ddweller 758M Apr 18 11:09 GX040079.MP4
-rw-r----- 1 v01ddweller v01ddweller 3.8G Apr  7 18:48 GX050076.MP4
-rw-r----- 1 v01ddweller v01ddweller 3.8G Apr  7 18:57 GX060076.MP4
-rw-r----- 1 v01ddweller v01ddweller 3.8G Apr  7 19:06 GX070076.MP4
-rw-r----- 1 v01ddweller v01ddweller 3.0G Apr  7 19:13 GX080076.MP4
```

From the last two digits of the file names, we can see that there are four
recordings:

- `GX0x0076.MP4`
- `GX010077.MP4`
- `GX0x0078.MP4`
- `GX0x0079.MP4`

Since `GX010077.MP4` was very short, that recording spans only one file.
However, the other three were much longer and thus were split into multiple
files. The script will create a `merged` directory, join each multi-part
recording into a single file and place them in the `merged` directory. Thus
from each multi-part, recording the following would be created:

```txt
-rwxrwxrwx 1 v01ddweller v01ddweller 30G Apr 10 11:17 ./merged/GX010076.MP4
-rwxrwxrwx 1 v01ddweller v01ddweller 14G Apr 18 18:42 ./merged/GX010078.mp4
-rwxrwxrwx 1 v01ddweller v01ddweller 12G Apr 18 18:44 ./merged/GX010079.mp4
```

Since it was very short, `GX010077.MP4` was skipped.

### Usage

CD into the folder containing the video files and run `stitch`, e.g.:

```cmd
cd /path/to/goprofiles
stitch
```

<details>
<summary>Sample output</summary>

```txt
bash-5.0$ stitch

File: GX010076.MP4
------------------

Multiple segments found, merging...
Creating 'merged' directory...
ffmpeg version 4.2.7-0ubuntu0.1 Copyright (c) 2000-2022 the FFmpeg developers
  built with gcc 9 (Ubuntu 9.4.0-1ubuntu1~20.04.1)
  configuration: --prefix=/usr --extra-version=0ubuntu0.1 --toolchain=hardened --libdir=/usr/lib/x86_64-linux-gnu --incdir=/usr/include/x86_64-linux-gnu --arch=amd64 --enable-gpl --disable-stripping --enable-avresample --disable-filter=resample --enable-avisynth --enable-gnutls --enable-ladspa --enable-libaom --enable-libass --enable-libbluray --enable-libbs2b --enable-libcaca --enable-libcdio --enable-libcodec2 --enable-libflite --enable-libfontconfig --enable-libfreetype --enable-libfribidi --enable-libgme --enable-libgsm --enable-libjack --enable-libmp3lame --enable-libmysofa --enable-libopenjpeg --enable-libopenmpt --enable-libopus --enable-libpulse --enable-librsvg --enable-librubberband --enable-libshine --enable-libsnappy --enable-libsoxr --enable-libspeex --enable-libssh --enable-libtheora --enable-libtwolame --enable-libvidstab --enable-libvorbis --enable-libvpx --enable-libwavpack --enable-libwebp --enable-libx265 --enable-libxml2 --enable-libxvid --enable-libzmq --enable-libzvbi --enable-lv2 --enable-omx --enable-openal --enable-opencl --enable-opengl --enable-sdl2 --enable-libdc1394 --enable-libdrm --enable-libiec61883 --enable-nvenc --enable-chromaprint --enable-frei0r --enable-libx264 --enable-shared
  libavutil      56. 31.100 / 56. 31.100
  libavcodec     58. 54.100 / 58. 54.100
  libavformat    58. 29.100 / 58. 29.100
  libavdevice    58.  8.100 / 58.  8.100
  libavfilter     7. 57.100 /  7. 57.100
  libavresample   4.  0.  0 /  4.  0.  0
  libswscale      5.  5.100 /  5.  5.100
  libswresample   3.  5.100 /  3.  5.100
  libpostproc    55.  5.100 / 55.  5.100
[mov,mp4,m4a,3gp,3g2,mj2 @ 0x559dc8ee1340] Using non-standard frame rate 59/1
[concat @ 0x559dc8ed6340] Could not find codec parameters for stream 2 (Unknown: none): unknown codec
Consider increasing the value for the 'analyzeduration' and 'probesize' options
Input #0, concat, from 'filelist.txt':
  Duration: N/A, start: 0.000000, bitrate: 59917 kb/s
    Stream #0:0(eng): Video: hevc (Main) (hvc1 / 0x31637668), yuvj420p(pc, bt709), 3840x2160 [SAR 1:1 DAR 16:9], 59671 kb/s, 59.94 fps, 59.94 tbr, 60k tbn, 59.94 tbc
    Metadata:
      rotate          : 180
      creation_time   : 2023-02-07T19:04:20.000000Z
      handler_name    : GoPro H.265
      encoder         : GoPro H.265 encoder
      timecode        : 19:22:34:50
    Stream #0:1(eng): Audio: aac (LC) (mp4a / 0x6134706D), 48000 Hz, stereo, fltp, 189 kb/s
    Metadata:
      creation_time   : 2023-02-07T19:04:20.000000Z
      handler_name    : GoPro AAC
      timecode        : 19:22:34:50
    Stream #0:2: Unknown: none
    Stream #0:3(eng): Data: bin_data (gpmd / 0x646D7067), 56 kb/s
    Metadata:
      creation_time   : 2023-02-07T19:04:20.000000Z
      handler_name    : GoPro MET
Output #0, mp4, to 'merged/GX010076.MP4':
  Metadata:
    encoder         : Lavf58.29.100
    Stream #0:0(eng): Video: hevc (Main) (hvc1 / 0x31637668), yuvj420p(pc, bt709), 3840x2160 [SAR 1:1 DAR 16:9], q=2-31, 59671 kb/s, 0.02 fps, 59.94 tbr, 60k tbn, 60k tbc
    Metadata:
      rotate          : 180
      creation_time   : 2023-02-07T19:04:20.000000Z
      handler_name    : GoPro H.265
      encoder         : GoPro H.265 encoder
      timecode        : 19:22:34:50
    Stream #0:1(eng): Audio: aac (LC) (mp4a / 0x6134706D), 48000 Hz, stereo, fltp, 189 kb/s
    Metadata:
      creation_time   : 2023-02-07T19:04:20.000000Z
      handler_name    : GoPro AAC
      timecode        : 19:22:34:50
Stream mapping:
  Stream #0:0 -> #0:0 (copy)
  Stream #0:1 -> #0:1 (copy)
Press [q] to stop, [?] for help
frame=  738 fps=0.0 q=-1.0 size=   88320kB time=00:00:12.29 bitrate=58843.5kbitsframe= 1416 fps=1415 q=-1.0 size=  172032kB time=00:00:23.60 bitrate=59698.0kbitframe= 2120 fps=1412 q=-1.0 size=  256768kB time=00:00:35.35 bitrate=59500.0kbitframe= 2879 fps=1439 q=-1.0 size=  350464kB time=00:00:48.02 bitrate=59786.0kbitframe= 3641 fps=1456 q=-1.0 size=  443136kB time=00:01:00.72 bitrate=59778.2kbitframe= 4438 fps=1479 q=-1.0 size=  539904kB time=00:01:14.02 bitrate=59749.5kbitframe= 5168 fps=1476 q=-1.0 size=  628736kB time=00:01:26.20 bitrate=59749.9kbitframe= 5800 fps=1449 q=-1.0 size=  706048kB time=00:01:36.74 bitrate=59784.4kbitframe= 6332 fps=1406 q=-1.0 size=  771328kB time=00:01:45.62 bitrate=59823.8kbitframe= 6877 fps=1374 q=-1.0 size=  837632kB time=00:01:54.73 bitrate=59808.6kbitframe= 7505 fps=1363 q=-1.0 size=  914176kB time=00:02:05.20 bitrate=59813.2kbitframe= 8113 fps=1351 q=-1.0 size=  988160kB time=00:02:15.33 bitrate=59814.5kbitframe= 8678 fps=1334 q=-1.0 size= 1056768kB time=00:02:24.76 bitrate=59802.2kbitframe= 9304 fps=1328 q=-1.0 size= 1133056kB time=00:02:35.20 bitrate=59804.7kbitframe= 9889 fps=1318 q=-1.0 size= 1205248kB time=00:02:44.96 bitrate=59851.5kbitframe=10466 fps=1307 q=-1.0 size= 1274624kB time=00:02:54.59 bitrate=59806.4kbitframe=11087 fps=1303 q=-1.0 size= 1351424kB time=00:03:04.96 bitrate=59855.5kbitframe=11762 fps=1306 q=-1.0 size= 1433088kB time=00:03:16.22 bitrate=59828.9kbitframe=12348 fps=1299 q=-1.0 size= 1504768kB time=00:03:25.98 bitrate=59843.3kbitframe=12966 fps=1296 q=-1.0 size= 1580032kB time=00:03:36.29 bitrate=59841.2kbitframe=13598 fps=1294 q=-1.0 size= 1656832kB time=00:03:46.84 bitrate=59833.2kbitframe=14210 fps=1291 q=-1.0 size= 1731584kB time=00:03:57.05 bitrate=59839.4kbitframe=14821 fps=1288 q=-1.0 size= 1806336kB time=00:04:07.24 bitrate=59849.1kbitframe=15518 fps=1292 q=-1.0 size= 1891072kB time=00:04:18.88 bitrate=59841.1kbitframe=16226 fps=1297 q=-1.0 size= 1977600kB time=00:04:30.68 bitrate=59849.5kbitframe=16964 fps=1304 q=-1.0 size= 2067968kB time=00:04:42.99 bitrate=59861.6kbitframe=17662 fps=1307 q=-1.0 size= 2152960kB time=00:04:54.65 bitrate=59856.4kbitframe=18408 fps=1314 q=-1.0 size= 2243328kB time=00:05:07.09 bitrate=59843.5kbitframe=19112 fps=1317 q=-1.0 size= 2329856kB time=00:05:18.83 bitrate=59862.2kbitframe=19819 fps=1320 q=-1.0 size= 2415616kB time=00:05:30.63 bitrate=59851.5kbitframe=20605 fps=1328 q=-1.0 size= 2511872kB time=00:05:43.74 bitrate=59862.3kbitframe=21343 fps=1333 q=-1.0 size= 2601728kB time=00:05:56.05 bitrate=59859.6kbitframe=22099 fps=1338 q=-1.0 size= 2694144kB time=00:06:08.68 bitrate=59862.9kbitframe=22744 fps=1337 q=-1.0 size= 2772736kB time=00:06:19.43 bitrate=59863.4kbitframe=23407 fps=1337 q=-1.0 size= 2853376kB time=00:06:30.50 bitrate=59857.8kbitframe=24180 fps=1342 q=-1.0 size= 2947584kB time=00:06:43.39 bitrate=59858.9kbitframe=24887 fps=1344 q=-1.0 size= 3033856kB time=00:06:55.18 bitrate=59861.4kbitframe=25554 fps=1344 q=-1.0 size= 3115264kB time=00:07:06.30 bitrate=59863.2kbitframe=26290 fps=1347 q=-1.0 size= 3204608kB time=00:07:18.59 bitrate=59855.5kbitframe=26938 fps=1346 q=-1.0 size= 3283712kB time=00:07:29.39 bitrate=59858.1kbitframe=27652 fps=1348 q=-1.0 size= 3371008kB time=00:07:41.31 bitrate=59862.5kbitframe=28361 fps=1350 q=-1.0 size= 3457792kB time=00:07:53.15 bitrate=59867.1kbitframe=29012 fps=1349 q=-1.0 size= 3536640kB time=00:08:04.01 bitrate=59858.5kbitframe=29743 fps=1351 q=-1.0 size= 3626496kB time=00:08:16.19 bitrate=59872.1kbitframe=30474 fps=1354 q=-1.0 size= 3715072kB time=00:08:28.39 bitrate=59862.7kbitframe=31126 fps=1352 q=-1.0 size= 3795200kB time=00:08:39.26 bitrate=59873.2kbitframe=31863 fps=1355 q=-1.0 size= 3884288kB time=00:08:51.56 bitrate=59861.2kbit[mov,mp4,m4a,3gp,3g2,mj2 @ 0x559dc8ee3740] Using non-standard frame rate 59/1
frame=32820 fps=1367 q=-1.0 size= 4001024kB time=00:09:07.54 bitrate=59860.6kbitframe=33828 fps=1380 q=-1.0 size= 4123648kB time=00:09:24.36 bitrate=59856.8kbitframe=34847 fps=1393 q=-1.0 size= 4248576kB time=00:09:41.36 bitrate=59866.8kbitframe=35880 fps=1406 q=-1.0 size= 4374016kB time=00:09:58.59 bitrate=59859.9kbitframe=36935 fps=1420 q=-1.0 size= 4503552kB time=00:10:16.19 bitrate=59872.2kbitframe=37988 fps=1433 q=-1.0 size= 4631808kB time=00:10:33.76 bitrate=59870.4kbitframe=38983 fps=1443 q=-1.0 size= 4753152kB time=00:10:50.36 bitrate=59870.7kbitframe=40091 fps=1457 q=-1.0 size= 4888064kB time=00:11:08.85 bitrate=59868.4kbitframe=41151 fps=1469 q=-1.0 size= 5017088kB time=00:11:26.53 bitrate=59865.9kbitframe=42133 fps=1477 q=-1.0 size= 5137408kB time=00:11:42.91 bitrate=59872.8kbitframe=43179 fps=1488 q=-1.0 size= 5264896kB time=00:12:00.36 bitrate=59872.2kbitframe=44188 fps=1497 q=-1.0 size= 5387520kB time=00:12:17.20 bitrate=59867.7kbitframe=45215 fps=1506 q=-1.0 size= 5512704kB time=00:12:34.33 bitrate=59867.3kbitframe=46245 fps=1515 q=-1.0 size= 5638656kB time=00:12:51.51 bitrate=59871.3kbitframe=47207 fps=1522 q=-1.0 size= 5756160kB time=00:13:07.56 bitrate=59873.5kbitframe=48181 fps=1529 q=-1.0 size= 5875200kB time=00:13:23.81 bitrate=59876.2kbitframe=49234 fps=1538 q=-1.0 size= 6003200kB time=00:13:41.38 bitrate=59872.2kbitframe=50236 fps=1545 q=-1.0 size= 6125056kB time=00:13:58.10 bitrate=59869.1kbitframe=51231 fps=1552 q=-1.0 size= 6246400kB time=00:14:14.70 bitrate=59869.4kbitframe=52239 fps=1558 q=-1.0 size= 6369792kB time=00:14:31.51 bitrate=59874.0kbitframe=53217 fps=1564 q=-1.0 size= 6489088kB time=00:14:47.83 bitrate=59874.4kbitframe=54219 fps=1571 q=-1.0 size= 6610944kB time=00:15:04.55 bitrate=59871.4kbitframe=55211 fps=1577 q=-1.0 size= 6732288kB time=00:15:21.10 bitrate=59874.9kbitframe=56252 fps=1584 q=-1.0 size= 6859520kB time=00:15:38.46 bitrate=59877.5kbitframe=57289 fps=1590 q=-1.0 size= 6985472kB time=00:15:55.77 bitrate=59873.2kbitframe=58288 fps=1596 q=-1.0 size= 7107328kB time=00:16:12.43 bitrate=59873.5kbitframe=59320 fps=1602 q=-1.0 size= 7233024kB time=00:16:29.65 bitrate=59872.4kbitframe=60475 fps=1612 q=-1.0 size= 7374592kB time=00:16:48.92 bitrate=59878.3kbitframe=61571 fps=1619 q=-1.0 size= 7507456kB time=00:17:07.20 bitrate=59872.1kbitframe=62509 fps=1623 q=-1.0 size= 7621888kB time=00:17:22.85 bitrate=59872.5kbitframe=63395 fps=1625 q=-1.0 size= 7730432kB time=00:17:37.63 bitrate=59876.5kbit[mov,mp4,m4a,3gp,3g2,mj2 @ 0x559dc8ee3740] Using non-standard frame rate 59/1
frame=64266 fps=1626 q=-1.0 size= 7836672kB time=00:17:52.16 bitrate=59876.7kbitframe=65009 fps=1624 q=-1.0 size= 7926784kB time=00:18:04.57 bitrate=59872.7kbitframe=65692 fps=1621 q=-1.0 size= 8010240kB time=00:18:15.96 bitrate=59874.3kbitframe=66390 fps=1618 q=-1.0 size= 8095232kB time=00:18:27.60 bitrate=59873.4kbitframe=67120 fps=1616 q=-1.0 size= 8184320kB time=00:18:39.78 bitrate=59874.0kbitframe=67803 fps=1613 q=-1.0 size= 8267520kB time=00:18:51.17 bitrate=59873.4kbitframe=68521 fps=1611 q=-1.0 size= 8355584kB time=00:19:03.15 bitrate=59877.1kbitframe=69253 fps=1610 q=-1.0 size= 8444928kB time=00:19:15.37 bitrate=59877.3kbitframe=69918 fps=1606 q=-1.0 size= 8525312kB time=00:19:26.46 bitrate=59872.7kbitframe=70612 fps=1604 q=-1.0 size= 8610816kB time=00:19:38.04 bitrate=59878.8kbitframe=71279 fps=1601 q=-1.0 size= 8691712kB time=00:19:49.16 bitrate=59875.8kbitframe=71993 fps=1599 q=-1.0 size= 8778496kB time=00:20:01.08 bitrate=59873.9kbitframe=72668 fps=1596 q=-1.0 size= 8860928kB time=00:20:12.34 bitrate=59874.7kbitframe=73333 fps=1593 q=-1.0 size= 8941824kB time=00:20:23.43 bitrate=59873.4kbitframe=74030 fps=1591 q=-1.0 size= 9027328kB time=00:20:35.06 bitrate=59876.9kbitframe=74757 fps=1590 q=-1.0 size= 9115904kB time=00:20:47.19 bitrate=59876.3kbitframe=75422 fps=1587 q=-1.0 size= 9197312kB time=00:20:58.28 bitrate=59878.4kbitframe=76145 fps=1585 q=-1.0 size= 9285376kB time=00:21:10.35 bitrate=59877.8kbitframe=76832 fps=1583 q=-1.0 size= 9368832kB time=00:21:21.81 bitrate=59875.7kbitframe=77559 fps=1582 q=-1.0 size= 9457920kB time=00:21:33.94 bitrate=59878.5kbitframe=78260 fps=1580 q=-1.0 size= 9543424kB time=00:21:45.63 bitrate=59878.6kbitframe=78919 fps=1577 q=-1.0 size= 9623040kB time=00:21:56.63 bitrate=59874.0kbitframe=79595 fps=1575 q=-1.0 size= 9705984kB time=00:22:07.90 bitrate=59877.2kbitframe=80292 fps=1573 q=-1.0 size= 9790976kB time=00:22:19.53 bitrate=59877.2kbitframe=80942 fps=1571 q=-1.0 size= 9870080kB time=00:22:30.38 bitrate=59876.2kbitframe=81661 fps=1569 q=-1.0 size= 9957632kB time=00:22:42.37 bitrate=59875.5kbitframe=82429 fps=1569 q=-1.0 size=10051584kB time=00:22:55.18 bitrate=59877.3kbitframe=83060 fps=1566 q=-1.0 size=10128128kB time=00:23:05.71 bitrate=59874.9kbitframe=83743 fps=1564 q=-1.0 size=10211584kB time=00:23:17.11 bitrate=59875.9kbitframe=84389 fps=1562 q=-1.0 size=10290176kB time=00:23:27.88 bitrate=59874.9kbitframe=84963 fps=1558 q=-1.0 size=10360576kB time=00:23:37.46 bitrate=59877.2kbitframe=85631 fps=1556 q=-1.0 size=10441472kB time=00:23:48.60 bitrate=59874.0kbitframe=86280 fps=1554 q=-1.0 size=10520832kB time=00:23:59.43 bitrate=59875.3kbitframe=87039 fps=1553 q=-1.0 size=10613760kB time=00:24:12.10 bitrate=59877.3kbitframe=87703 fps=1551 q=-1.0 size=10694400kB time=00:24:23.17 bitrate=59875.5kbitframe=88365 fps=1549 q=-1.0 size=10775296kB time=00:24:34.22 bitrate=59876.5kbitframe=89071 fps=1548 q=-1.0 size=10861312kB time=00:24:45.99 bitrate=59876.1kbitframe=89770 fps=1547 q=-1.0 size=10947328kB time=00:24:57.66 bitrate=59880.4kbitframe=90334 fps=1543 q=-1.0 size=11015936kB time=00:25:07.07 bitrate=59879.4kbitframe=91010 fps=1542 q=-1.0 size=11097600kB time=00:25:18.34 bitrate=59875.3kbitframe=91658 fps=1539 q=-1.0 size=11176960kB time=00:25:29.15 bitrate=59877.1kbitframe=92299 fps=1537 q=-1.0 size=11255296kB time=00:25:39.85 bitrate=59878.0kbitframe=92978 fps=1536 q=-1.0 size=11338240kB time=00:25:51.18 bitrate=59878.8kbitframe=93613 fps=1534 q=-1.0 size=11415296kB time=00:26:01.77 bitrate=59876.7kbitframe=94295 fps=1532 q=-1.0 size=11498752kB time=00:26:13.15 bitrate=59878.3kbitframe=94984 fps=1531 q=-1.0 size=11582464kB time=00:26:24.64 bitrate=59876.7kbitframe=95624 fps=1529 q=-1.0 size=11660800kB time=00:26:35.32 bitrate=59878.2kbit[mov,mp4,m4a,3gp,3g2,mj2 @ 0x559dc8ee3740] Using non-standard frame rate 59/1
frame=96308 fps=1528 q=-1.0 size=11744000kB time=00:26:46.73 bitrate=59877.2kbitframe=96979 fps=1526 q=-1.0 size=11825920kB time=00:26:57.93 bitrate=59877.6kbitframe=97621 fps=1524 q=-1.0 size=11904256kB time=00:27:08.64 bitrate=59877.9kbitframe=98316 fps=1523 q=-1.0 size=11988736kB time=00:27:20.23 bitrate=59876.5kbitframe=98968 fps=1522 q=-1.0 size=12068608kB time=00:27:31.11 bitrate=59878.4kbitframe=99662 fps=1521 q=-1.0 size=12153344kB time=00:27:42.69 bitrate=59878.9kbitframe=100367 fps=1520 q=-1.0 size=12238848kB time=00:27:54.45 bitrate=59876.6kbiframe=101008 fps=1518 q=-1.0 size=12317184kB time=00:28:05.14 bitrate=59877.4kbiframe=101702 fps=1517 q=-1.0 size=12402176kB time=00:28:16.72 bitrate=59879.2kbiframe=102412 fps=1516 q=-1.0 size=12488960kB time=00:28:28.57 bitrate=59880.2kbiframe=103033 fps=1514 q=-1.0 size=12564224kB time=00:28:38.93 bitrate=59877.9kbiframe=103705 fps=1513 q=-1.0 size=12645888kB time=00:28:50.14 bitrate=59876.6kbiframe=104351 fps=1511 q=-1.0 size=12724992kB time=00:29:00.92 bitrate=59878.1kbiframe=105026 fps=1510 q=-1.0 size=12807168kB time=00:29:12.18 bitrate=59877.5kbiframe=105802 fps=1511 q=-1.0 size=12901888kB time=00:29:25.13 bitrate=59877.8kbiframe=106347 fps=1508 q=-1.0 size=12968704kB time=00:29:34.22 bitrate=59879.6kbiframe=107017 fps=1506 q=-1.0 size=13050112kB time=00:29:45.39 bitrate=59878.2kbiframe=107771 fps=1506 q=-1.0 size=13142272kB time=00:29:57.97 bitrate=59879.2kbiframe=108409 fps=1505 q=-1.0 size=13220096kB time=00:30:08.62 bitrate=59879.3kbiframe=109133 fps=1504 q=-1.0 size=13308160kB time=00:30:20.70 bitrate=59878.3kbiframe=109815 fps=1503 q=-1.0 size=13390848kB time=00:30:32.07 bitrate=59876.1kbiframe=110345 fps=1500 q=-1.0 size=13455872kB time=00:30:40.92 bitrate=59877.6kbiframe=111032 fps=1500 q=-1.0 size=13540096kB time=00:30:52.38 bitrate=59879.8kbiframe=111718 fps=1499 q=-1.0 size=13623552kB time=00:31:03.82 bitrate=59879.0kbiframe=112225 fps=1495 q=-1.0 size=13685248kB time=00:31:12.28 bitrate=59878.4kbiframe=112905 fps=1495 q=-1.0 size=13768448kB time=00:31:23.63 bitrate=59879.4kbiframe=113621 fps=1494 q=-1.0 size=13855488kB time=00:31:35.57 bitrate=59878.5kbiframe=114353 fps=1494 q=-1.0 size=13944576kB time=00:31:47.78 bitrate=59877.7kbiframe=115111 fps=1494 q=-1.0 size=14036992kB time=00:32:00.43 bitrate=59877.6kbiframe=115708 fps=1492 q=-1.0 size=14110208kB time=00:32:10.39 bitrate=59879.4kbiframe=116388 fps=1491 q=-1.0 size=14192640kB time=00:32:21.73 bitrate=59877.3kbiframe=117044 fps=1490 q=-1.0 size=14273280kB time=00:32:32.68 bitrate=59880.0kbiframe=117662 fps=1488 q=-1.0 size=14348288kB time=00:32:42.99 bitrate=59878.5kbiframe=118352 fps=1488 q=-1.0 size=14432512kB time=00:32:54.50 bitrate=59878.9kbiframe=118945 fps=1486 q=-1.0 size=14504448kB time=00:33:04.39 bitrate=59877.3kbiframe=119342 fps=1482 q=-1.0 size=14553344kB time=00:33:11.02 bitrate=59879.3kbiframe=120044 fps=1481 q=-1.0 size=14639104kB time=00:33:22.73 bitrate=59880.0kbiframe=120712 fps=1480 q=-1.0 size=14720256kB time=00:33:33.87 bitrate=59878.7kbiframe=121366 fps=1479 q=-1.0 size=14800128kB time=00:33:44.80 bitrate=59878.8kbiframe=122042 fps=1478 q=-1.0 size=14882816kB time=00:33:56.06 bitrate=59880.2kbiframe=122726 fps=1478 q=-1.0 size=14965760kB time=00:34:07.47 bitrate=59878.3kbiframe=123369 fps=1477 q=-1.0 size=15044352kB time=00:34:18.20 bitrate=59879.0kbiframe=124049 fps=1476 q=-1.0 size=15127296kB time=00:34:29.55 bitrate=59878.9kbiframe=124710 fps=1475 q=-1.0 size=15207936kB time=00:34:40.58 bitrate=59878.9kbiframe=125353 fps=1474 q=-1.0 size=15286272kB time=00:34:51.30 bitrate=59879.0kbiframe=126049 fps=1473 q=-1.0 size=15371520kB time=00:35:02.91 bitrate=59880.4kbiframe=126678 fps=1472 q=-1.0 size=15447552kB time=00:35:13.40 bitrate=59877.8kbiframe=127408 fps=1472 q=-1.0 size=15537152kB time=00:35:25.58 bitrate=59880.0kbi[mov,mp4,m4a,3gp,3g2,mj2 @ 0x559dc8ee3740] Using non-standard frame rate 59/1
frame=128161 fps=1472 q=-1.0 size=15628544kB time=00:35:38.16 bitrate=59877.9kbiframe=128780 fps=1471 q=-1.0 size=15704064kB time=00:35:48.49 bitrate=59878.1kbiframe=129458 fps=1470 q=-1.0 size=15787264kB time=00:35:59.80 bitrate=59880.1kbiframe=130125 fps=1469 q=-1.0 size=15868416kB time=00:36:10.93 bitrate=59879.4kbiframe=130832 fps=1469 q=-1.0 size=15954176kB time=00:36:22.72 bitrate=59877.6kbiframe=131513 fps=1468 q=-1.0 size=16037632kB time=00:36:34.08 bitrate=59879.2kbiframe=132142 fps=1467 q=-1.0 size=16114176kB time=00:36:44.58 bitrate=59878.6kbiframe=132813 fps=1467 q=-1.0 size=16195840kB time=00:36:55.77 bitrate=59878.0kbiframe=133482 fps=1466 q=-1.0 size=16277760kB time=00:37:06.93 bitrate=59879.2kbiframe=134083 fps=1464 q=-1.0 size=16350720kB time=00:37:16.96 bitrate=59878.0kbiframe=134753 fps=1464 q=-1.0 size=16432384kB time=00:37:28.14 bitrate=59877.9kbiframe=135448 fps=1463 q=-1.0 size=16517376kB time=00:37:39.73 bitrate=59878.8kbiframe=136059 fps=1462 q=-1.0 size=16592128kB time=00:37:49.93 bitrate=59879.7kbiframe=136753 fps=1462 q=-1.0 size=16676864kB time=00:38:01.50 bitrate=59880.0kbiframe=137509 fps=1462 q=-1.0 size=16768768kB time=00:38:14.12 bitrate=59879.0kbiframe=137911 fps=1458 q=-1.0 size=16817920kB time=00:38:20.82 bitrate=59879.5kbiframe=138571 fps=1458 q=-1.0 size=16898048kB time=00:38:31.84 bitrate=59878.2kbiframe=139147 fps=1456 q=-1.0 size=16968704kB time=00:38:41.44 bitrate=59879.7kbiframe=139825 fps=1456 q=-1.0 size=17050880kB time=00:38:52.76 bitrate=59877.9kbiframe=140499 fps=1455 q=-1.0 size=17133312kB time=00:39:04.00 bitrate=59878.7kbiframe=141062 fps=1453 q=-1.0 size=17202176kB time=00:39:13.39 bitrate=59879.5kbiframe=141739 fps=1453 q=-1.0 size=17284608kB time=00:39:24.69 bitrate=59879.0kbiframe=142406 fps=1452 q=-1.0 size=17365504kB time=00:39:35.82 bitrate=59877.5kbiframe=142960 fps=1450 q=-1.0 size=17433344kB time=00:39:45.06 bitrate=59878.5kbiframe=143629 fps=1450 q=-1.0 size=17515008kB time=00:39:56.22 bitrate=59878.8kbiframe=144275 fps=1449 q=-1.0 size=17594368kB time=00:40:07.00 bitrate=59880.7kbiframe=144904 fps=1448 q=-1.0 size=17670656kB time=00:40:17.49 bitrate=59879.3kbiframe=145620 fps=1448 q=-1.0 size=17757696kB time=00:40:29.44 bitrate=59878.4kbiframe=146198 fps=1447 q=-1.0 size=17828864kB time=00:40:39.08 bitrate=59880.7kbiframe=146897 fps=1446 q=-1.0 size=17913600kB time=00:40:50.74 bitrate=59879.0kbiframe=147580 fps=1446 q=-1.0 size=17996544kB time=00:41:02.14 bitrate=59877.9kbiframe=148164 fps=1445 q=-1.0 size=18067968kB time=00:41:11.88 bitrate=59878.6kbiframe=148844 fps=1444 q=-1.0 size=18150656kB time=00:41:23.22 bitrate=59877.8kbiframe=149513 fps=1444 q=-1.0 size=18232064kB time=00:41:34.38 bitrate=59877.2kbiframe=150115 fps=1442 q=-1.0 size=18306304kB time=00:41:44.43 bitrate=59879.9kbiframe=150787 fps=1442 q=-1.0 size=18387712kB time=00:41:55.64 bitrate=59878.2kbiframe=151409 fps=1441 q=-1.0 size=18463232kB time=00:42:06.02 bitrate=59877.1kbiframe=152104 fps=1441 q=-1.0 size=18548736kB time=00:42:17.61 bitrate=59879.5kbiframe=152789 fps=1440 q=-1.0 size=18631936kB time=00:42:29.04 bitrate=59878.5kbiframe=153358 fps=1439 q=-1.0 size=18701056kB time=00:42:38.53 bitrate=59877.6kbiframe=154034 fps=1439 q=-1.0 size=18784256kB time=00:42:49.81 bitrate=59880.1kbiframe=154781 fps=1439 q=-1.0 size=18875136kB time=00:43:02.27 bitrate=59879.4kbiframe=155350 fps=1437 q=-1.0 size=18945024kB time=00:43:11.76 bitrate=59880.9kbiframe=156035 fps=1437 q=-1.0 size=19028736kB time=00:43:23.19 bitrate=59881.5kbiframe=156707 fps=1437 q=-1.0 size=19110400kB time=00:43:34.40 bitrate=59880.6kbiframe=157289 fps=1435 q=-1.0 size=19180544kB time=00:43:44.11 bitrate=59878.0kbiframe=157974 fps=1435 q=-1.0 size=19264256kB time=00:43:55.54 bitrate=59878.6kbiframe=158600 fps=1434 q=-1.0 size=19340800kB time=00:44:05.99 bitrate=59879.2kbiframe=159292 fps=1434 q=-1.0 size=19425024kB time=00:44:17.53 bitrate=59878.7kbiframe=159964 fps=1434 q=-1.0 size=19507200kB time=00:44:28.74 bitrate=59879.4kbi[mov,mp4,m4a,3gp,3g2,mj2 @ 0x559dc8ee3740] Using non-standard frame rate 59/1
frame=160471 fps=1432 q=-1.0 size=19569408kB time=00:44:37.20 bitrate=59880.6kbiframe=161158 fps=1432 q=-1.0 size=19652608kB time=00:44:48.66 bitrate=59878.8kbiframe=161641 fps=1429 q=-1.0 size=19711488kB time=00:44:56.72 bitrate=59878.8kbiframe=162345 fps=1429 q=-1.0 size=19797760kB time=00:45:08.46 bitrate=59880.0kbiframe=163053 fps=1429 q=-1.0 size=19884032kB time=00:45:20.28 bitrate=59879.8kbiframe=163623 fps=1428 q=-1.0 size=19953664kB time=00:45:29.79 bitrate=59880.2kbiframe=164324 fps=1428 q=-1.0 size=20039168kB time=00:45:41.48 bitrate=59880.2kbiframe=165085 fps=1428 q=-1.0 size=20131584kB time=00:45:54.18 bitrate=59879.1kbiframe=165713 fps=1428 q=-1.0 size=20208384kB time=00:46:04.65 bitrate=59879.7kbiframe=166388 fps=1427 q=-1.0 size=20290816kB time=00:46:15.92 bitrate=59880.1kbiframe=167065 fps=1427 q=-1.0 size=20373504kB time=00:46:27.21 bitrate=59880.5kbiframe=167712 fps=1426 q=-1.0 size=20452096kB time=00:46:38.01 bitrate=59879.5kbiframe=168391 fps=1426 q=-1.0 size=20534528kB time=00:46:49.33 bitrate=59878.5kbiframe=168963 fps=1425 q=-1.0 size=20605184kB time=00:46:58.88 bitrate=59881.1kbiframe=169650 fps=1425 q=-1.0 size=20688128kB time=00:47:10.34 bitrate=59878.7kbiframe=170325 fps=1424 q=-1.0 size=20770560kB time=00:47:21.60 bitrate=59879.0kbiframe=170961 fps=1424 q=-1.0 size=20848896kB time=00:47:32.21 bitrate=59881.3kbiframe=171632 fps=1423 q=-1.0 size=20930560kB time=00:47:43.40 bitrate=59880.8kbiframe=172307 fps=1423 q=-1.0 size=21012224kB time=00:47:54.66 bitrate=59878.9kbiframe=172853 fps=1422 q=-1.0 size=21079296kB time=00:48:03.77 bitrate=59880.3kbiframe=173523 fps=1421 q=-1.0 size=21161216kB time=00:48:14.95 bitrate=59880.9kbiframe=174184 fps=1421 q=-1.0 size=21241600kB time=00:48:25.98 bitrate=59880.3kbiframe=174789 fps=1420 q=-1.0 size=21315072kB time=00:48:36.07 bitrate=59879.4kbiframe=175462 fps=1420 q=-1.0 size=21397248kB time=00:48:47.30 bitrate=59879.7kbiframe=176006 fps=1418 q=-1.0 size=21463808kB time=00:48:56.38 bitrate=59880.4kbiframe=176669 fps=1418 q=-1.0 size=21544192kB time=00:49:07.44 bitrate=59879.1kbiframe=177353 fps=1418 q=-1.0 size=21628160kB time=00:49:18.85 bitrate=59880.6kbiframe=177927 fps=1417 q=-1.0 size=21698304kB time=00:49:28.42 bitrate=59881.0kbiframe=178612 fps=1417 q=-1.0 size=21781504kB time=00:49:39.85 bitrate=59880.1kbiframe=179281 fps=1416 q=-1.0 size=21863424kB time=00:49:51.01 bitrate=59881.0kbiframe=179855 fps=1415 q=-1.0 size=21932800kB time=00:50:00.59 bitrate=59879.3kbiframe=180536 fps=1415 q=-1.0 size=22016512kB time=00:50:11.95 bitrate=59881.1kbiframe=180999 fps=1413 q=-1.0 size=22072576kB time=00:50:19.68 bitrate=59880.0kbiframe=181678 fps=1413 q=-1.0 size=22155520kB time=00:50:31.00 bitrate=59880.4kbiframe=182345 fps=1413 q=-1.0 size=22236672kB time=00:50:42.13 bitrate=59879.9kbiframe=182891 fps=1411 q=-1.0 size=22303232kB time=00:50:51.24 bitrate=59879.8kbiframe=183540 fps=1411 q=-1.0 size=22382592kB time=00:51:02.07 bitrate=59880.4kbiframe=184225 fps=1411 q=-1.0 size=22465536kB time=00:51:13.50 bitrate=59878.8kbiframe=184773 fps=1410 q=-1.0 size=22532864kB time=00:51:22.64 bitrate=59880.2kbiframe=185437 fps=1409 q=-1.0 size=22614016kB time=00:51:33.72 bitrate=59880.6kbiframe=186122 fps=1409 q=-1.0 size=22697216kB time=00:51:45.14 bitrate=59879.8kbiframe=186738 fps=1408 q=-1.0 size=22772480kB time=00:51:55.42 bitrate=59880.1kbiframe=187415 fps=1408 q=-1.0 size=22855424kB time=00:52:06.72 bitrate=59881.1kbiframe=188007 fps=1407 q=-1.0 size=22926848kB time=00:52:16.59 bitrate=59879.1kbiframe=188691 fps=1407 q=-1.0 size=23010560kB time=00:52:28.00 bitrate=59879.9kbiframe=189365 fps=1407 q=-1.0 size=23092480kB time=00:52:39.25 bitrate=59879.2kbiframe=189929 fps=1406 q=-1.0 size=23161344kB time=00:52:48.66 bitrate=59879.4kbiframe=190570 fps=1405 q=-1.0 size=23240192kB time=00:52:59.35 bitrate=59881.2kbiframe=191112 fps=1404 q=-1.0 size=23305984kB time=00:53:08.39 bitrate=59880.4kbiframe=191799 fps=1404 q=-1.0 size=23390208kB time=00:53:19.86 bitrate=59881.5kbi[mov,mp4,m4a,3gp,3g2,mj2 @ 0x559dc8ee3740] Using non-standard frame rate 59/1
frame=192352 fps=1403 q=-1.0 size=23457536kB time=00:53:29.08 bitrate=59881.3kbiframe=193052 fps=1403 q=-1.0 size=23542528kB time=00:53:40.76 bitrate=59880.3kbiframe=193765 fps=1403 q=-1.0 size=23629824kB time=00:53:52.66 bitrate=59881.1kbiframe=194353 fps=1402 q=-1.0 size=23701504kB time=00:54:02.46 bitrate=59881.1kbiframe=195049 fps=1402 q=-1.0 size=23786496kB time=00:54:14.08 bitrate=59881.4kbiframe=195748 fps=1402 q=-1.0 size=23871232kB time=00:54:25.75 bitrate=59880.0kbiframe=196341 fps=1401 q=-1.0 size=23943680kB time=00:54:35.63 bitrate=59880.5kbiframe=197021 fps=1401 q=-1.0 size=24026880kB time=00:54:46.98 bitrate=59881.1kbiframe=197709 fps=1401 q=-1.0 size=24110336kB time=00:54:58.45 bitrate=59880.0kbiframe=198285 fps=1400 q=-1.0 size=24180736kB time=00:55:08.06 bitrate=59880.4kbiframe=198980 fps=1400 q=-1.0 size=24265472kB time=00:55:19.66 bitrate=59880.4kbiframe=199555 fps=1399 q=-1.0 size=24335872kB time=00:55:29.26 bitrate=59881.0kbiframe=200246 fps=1399 q=-1.0 size=24419840kB time=00:55:40.78 bitrate=59880.3kbiframe=200913 fps=1399 q=-1.0 size=24501504kB time=00:55:51.91 bitrate=59881.1kbiframe=201470 fps=1398 q=-1.0 size=24569600kB time=00:56:01.20 bitrate=59881.5kbiframe=202188 fps=1398 q=-1.0 size=24656896kB time=00:56:13.18 bitrate=59880.9kbiframe=202790 fps=1398 q=-1.0 size=24730368kB time=00:56:23.22 bitrate=59881.0kbiframe=203367 fps=1397 q=-1.0 size=24800768kB time=00:56:32.85 bitrate=59881.1kbiframe=204034 fps=1397 q=-1.0 size=24882176kB time=00:56:43.98 bitrate=59881.3kbiframe=204608 fps=1396 q=-1.0 size=24952064kB time=00:56:53.55 bitrate=59881.0kbiframe=205331 fps=1396 q=-1.0 size=25039616kB time=00:57:05.61 bitrate=59879.5kbiframe=206000 fps=1396 q=-1.0 size=25122048kB time=00:57:16.78 bitrate=59881.6kbiframe=206571 fps=1395 q=-1.0 size=25191680kB time=00:57:26.30 bitrate=59881.6kbiframe=207272 fps=1395 q=-1.0 size=25276928kB time=00:57:38.00 bitrate=59880.9kbiframe=207969 fps=1395 q=-1.0 size=25361920kB time=00:57:49.63 bitrate=59881.0kbiframe=208562 fps=1394 q=-1.0 size=25434624kB time=00:57:59.52 bitrate=59881.9kbiframe=209265 fps=1394 q=-1.0 size=25519872kB time=00:58:11.25 bitrate=59880.8kbiframe=209862 fps=1393 q=-1.0 size=25592576kB time=00:58:21.21 bitrate=59880.5kbiframe=210469 fps=1393 q=-1.0 size=25666816kB time=00:58:31.33 bitrate=59881.0kbiframe=211144 fps=1393 q=-1.0 size=25749504kB time=00:58:42.60 bitrate=59881.8kbiframe=211774 fps=1392 q=-1.0 size=25826048kB time=00:58:53.11 bitrate=59881.2kbiframe=212431 fps=1392 q=-1.0 size=25905920kB time=00:59:04.07 bitrate=59880.7kbiframe=213087 fps=1392 q=-1.0 size=25985792kB time=00:59:15.01 bitrate=59880.4kbiframe=213651 fps=1391 q=-1.0 size=26054656kB time=00:59:24.42 bitrate=59880.6kbiframe=214320 fps=1391 q=-1.0 size=26136320kB time=00:59:35.58 bitrate=59880.7kbiframe=215003 fps=1391 q=-1.0 size=26219776kB time=00:59:46.98 bitrate=59881.1kbiframe=215562 fps=1390 q=-1.0 size=26287616kB time=00:59:56.30 bitrate=59880.4kbiframe=216246 fps=1390 q=-1.0 size=26371584kB time=01:00:07.71 bitrate=59881.6kbiframe=216803 fps=1389 q=-1.0 size=26439424kB time=01:00:17.01 bitrate=59881.4kbiframe=217507 fps=1389 q=-1.0 size=26525184kB time=01:00:28.75 bitrate=59881.2kbiframe=218190 fps=1389 q=-1.0 size=26608128kB time=01:00:40.15 bitrate=59880.4kbiframe=218823 fps=1388 q=-1.0 size=26685696kB time=01:00:50.71 bitrate=59881.3kbiframe=219577 fps=1389 q=-1.0 size=26777600kB time=01:01:03.29 bitrate=59881.0kbiframe=220188 fps=1388 q=-1.0 size=26852096kB time=01:01:13.48 bitrate=59881.1kbiframe=220845 fps=1388 q=-1.0 size=26932224kB time=01:01:24.44 bitrate=59881.1kbiframe=221529 fps=1388 q=-1.0 size=27015680kB time=01:01:35.85 bitrate=59881.2kbiframe=222079 fps=1387 q=-1.0 size=27082496kB time=01:01:45.03 bitrate=59880.7kbiframe=222742 fps=1387 q=-1.0 size=27163648kB time=01:01:56.09 bitrate=59881.2kbiframe=223370 fps=1386 q=-1.0 size=27239680kB time=01:02:06.57 bitrate=59880.1kbiframe=223949 fps=1386 q=-1.0 size=27310592kB time=01:02:16.22 bitrate=59880.8kbi[mov,mp4,m4a,3gp,3g2,mj2 @ 0x559dc8ee3740] Using non-standard frame rate 59/1
frame=224576 fps=1385 q=-1.0 size=27387136kB time=01:02:26.69 bitrate=59881.0kbiframe=225246 fps=1385 q=-1.0 size=27468544kB time=01:02:37.86 bitrate=59880.3kbiframe=225818 fps=1384 q=-1.0 size=27538432kB time=01:02:47.41 bitrate=59880.6kbiframe=226489 fps=1384 q=-1.0 size=27620096kB time=01:02:58.60 bitrate=59880.2kbiframe=227101 fps=1384 q=-1.0 size=27695360kB time=01:03:08.83 bitrate=59881.4kbiframe=227756 fps=1384 q=-1.0 size=27774720kB time=01:03:19.74 bitrate=59880.5kbiframe=228438 fps=1383 q=-1.0 size=27857920kB time=01:03:31.12 bitrate=59880.5kbiframe=228990 fps=1383 q=-1.0 size=27925504kB time=01:03:40.33 bitrate=59881.0kbiframe=229646 fps=1382 q=-1.0 size=28005888kB time=01:03:51.28 bitrate=59881.8kbiframe=230311 fps=1382 q=-1.0 size=28087040kB time=01:04:02.36 bitrate=59882.1kbiframe=230877 fps=1382 q=-1.0 size=28155904kB time=01:04:11.81 bitrate=59881.7kbiframe=231539 fps=1381 q=-1.0 size=28236288kB time=01:04:22.85 bitrate=59881.0kbiframe=232192 fps=1381 q=-1.0 size=28316160kB time=01:04:33.75 bitrate=59881.5kbiframe=232714 fps=1380 q=-1.0 size=28380160kB time=01:04:42.46 bitrate=59882.2kbiframe=233410 fps=1380 q=-1.0 size=28464896kB time=01:04:54.07 bitrate=59881.9kbiframe=234024 fps=1380 q=-1.0 size=28538880kB time=01:05:04.31 bitrate=59880.0kbiframe=234652 fps=1379 q=-1.0 size=28615936kB time=01:05:14.79 bitrate=59881.0kbiframe=235356 fps=1379 q=-1.0 size=28701696kB time=01:05:26.53 bitrate=59880.8kbiframe=236023 fps=1379 q=-1.0 size=28783360kB time=01:05:37.67 bitrate=59881.4kbiframe=236622 fps=1379 q=-1.0 size=28856320kB time=01:05:47.65 bitrate=59881.3kbiframe=237266 fps=1378 q=-1.0 size=28935168kB time=01:05:58.40 bitrate=59882.0kbiframe=237927 fps=1378 q=-1.0 size=29014784kB time=01:06:09.42 bitrate=59879.9kbiframe=238479 fps=1378 q=-1.0 size=29083136kB time=01:06:18.65 bitrate=59881.8kbiframe=239144 fps=1377 q=-1.0 size=29164032kB time=01:06:29.73 bitrate=59881.6kbiframe=239749 fps=1377 q=-1.0 size=29237760kB time=01:06:39.83 bitrate=59881.4kbiframe=240392 fps=1377 q=-1.0 size=29316352kB time=01:06:50.55 bitrate=59881.9kbiframe=241054 fps=1376 q=-1.0 size=29396736kB time=01:07:01.59 bitrate=59881.2kbiframe=241587 fps=1376 q=-1.0 size=29461504kB time=01:07:10.49 bitrate=59880.7kbiframe=242233 fps=1375 q=-1.0 size=29540352kB time=01:07:21.26 bitrate=59880.9kbiframe=242860 fps=1375 q=-1.0 size=29616896kB time=01:07:31.72 bitrate=59881.0kbiframe=243386 fps=1374 q=-1.0 size=29681152kB time=01:07:40.50 bitrate=59881.2kbiframe=244083 fps=1374 q=-1.0 size=29766144kB time=01:07:52.13 bitrate=59881.2kbiframe=244753 fps=1374 q=-1.0 size=29847808kB time=01:08:03.31 bitrate=59881.1kbiframe=245356 fps=1374 q=-1.0 size=29921536kB time=01:08:13.38 bitrate=59881.3kbiframe=246066 fps=1374 q=-1.0 size=30008064kB time=01:08:25.21 bitrate=59881.4kbiframe=246633 fps=1373 q=-1.0 size=30077440kB time=01:08:34.67 bitrate=59881.9kbiframe=247272 fps=1373 q=-1.0 size=30155264kB time=01:08:45.33 bitrate=59881.7kbiframe=247908 fps=1372 q=-1.0 size=30232832kB time=01:08:55.94 bitrate=59881.7kbiframe=248411 fps=1371 q=-1.0 size=30293760kB time=01:09:04.35 bitrate=59880.7kbiframe=249023 fps=1371 q=-1.0 size=30368512kB time=01:09:14.54 bitrate=59881.1kbiframe=249422 fps=1370 q=-1.0 Lsize=30424024kB time=01:09:21.20 bitrate=59894.6kbits/s speed=22.9x
video:30321758kB audio:96189kB subtitle:0kB other streams:0kB global headers:0kB muxing overhead: 0.019976%
GX010076.MP4  GX030076.MP4  GX050076.MP4  GX070076.MP4
GX020076.MP4  GX040076.MP4  GX060076.MP4  GX080076.MP4


File segments: 8

File: GX010077.MP4
------------------

Only one segment found:
GX010077.MP4


File segments: 1

File: GX010078.MP4
------------------

Multiple segments found, merging...
Creating 'merged' directory...
ffmpeg version 4.2.7-0ubuntu0.1 Copyright (c) 2000-2022 the FFmpeg developers
  built with gcc 9 (Ubuntu 9.4.0-1ubuntu1~20.04.1)
  configuration: --prefix=/usr --extra-version=0ubuntu0.1 --toolchain=hardened --libdir=/usr/lib/x86_64-linux-gnu --incdir=/usr/include/x86_64-linux-gnu --arch=amd64 --enable-gpl --disable-stripping --enable-avresample --disable-filter=resample --enable-avisynth --enable-gnutls --enable-ladspa --enable-libaom --enable-libass --enable-libbluray --enable-libbs2b --enable-libcaca --enable-libcdio --enable-libcodec2 --enable-libflite --enable-libfontconfig --enable-libfreetype --enable-libfribidi --enable-libgme --enable-libgsm --enable-libjack --enable-libmp3lame --enable-libmysofa --enable-libopenjpeg --enable-libopenmpt --enable-libopus --enable-libpulse --enable-librsvg --enable-librubberband --enable-libshine --enable-libsnappy --enable-libsoxr --enable-libspeex --enable-libssh --enable-libtheora --enable-libtwolame --enable-libvidstab --enable-libvorbis --enable-libvpx --enable-libwavpack --enable-libwebp --enable-libx265 --enable-libxml2 --enable-libxvid --enable-libzmq --enable-libzvbi --enable-lv2 --enable-omx --enable-openal --enable-opencl --enable-opengl --enable-sdl2 --enable-libdc1394 --enable-libdrm --enable-libiec61883 --enable-nvenc --enable-chromaprint --enable-frei0r --enable-libx264 --enable-shared
  libavutil      56. 31.100 / 56. 31.100
  libavcodec     58. 54.100 / 58. 54.100
  libavformat    58. 29.100 / 58. 29.100
  libavdevice    58.  8.100 / 58.  8.100
  libavfilter     7. 57.100 /  7. 57.100
  libavresample   4.  0.  0 /  4.  0.  0
  libswscale      5.  5.100 /  5.  5.100
  libswresample   3.  5.100 /  3.  5.100
  libpostproc    55.  5.100 / 55.  5.100
[mov,mp4,m4a,3gp,3g2,mj2 @ 0x55ac505476c0] Using non-standard frame rate 59/1
[concat @ 0x55ac5053d340] Could not find codec parameters for stream 2 (Unknown: none): unknown codec
Consider increasing the value for the 'analyzeduration' and 'probesize' options
Input #0, concat, from 'filelist.txt':
  Duration: N/A, start: 0.000000, bitrate: 60002 kb/s
    Stream #0:0(eng): Video: hevc (Main) (hvc1 / 0x31637668), yuvj420p(pc, bt709), 3840x2160 [SAR 1:1 DAR 16:9], 59756 kb/s, 59.94 fps, 59.94 tbr, 60k tbn, 59.94 tbc
    Metadata:
      creation_time   : 2023-02-18T11:06:02.000000Z
      handler_name    : GoPro H.265
      encoder         : GoPro H.265 encoder
      timecode        : 11:16:39:34
    Stream #0:1(eng): Audio: aac (LC) (mp4a / 0x6134706D), 48000 Hz, stereo, fltp, 189 kb/s
    Metadata:
      creation_time   : 2023-02-18T11:06:02.000000Z
      handler_name    : GoPro AAC
      timecode        : 11:16:39:34
    Stream #0:2: Unknown: none
    Stream #0:3(eng): Data: bin_data (gpmd / 0x646D7067), 56 kb/s
    Metadata:
      creation_time   : 2023-02-18T11:06:02.000000Z
      handler_name    : GoPro MET
Output #0, mp4, to 'merged/GX010078.MP4':
  Metadata:
    encoder         : Lavf58.29.100
    Stream #0:0(eng): Video: hevc (Main) (hvc1 / 0x31637668), yuvj420p(pc, bt709), 3840x2160 [SAR 1:1 DAR 16:9], q=2-31, 59756 kb/s, 0.02 fps, 59.94 tbr, 60k tbn, 60k tbc
    Metadata:
      creation_time   : 2023-02-18T11:06:02.000000Z
      handler_name    : GoPro H.265
      encoder         : GoPro H.265 encoder
      timecode        : 11:16:39:34
    Stream #0:1(eng): Audio: aac (LC) (mp4a / 0x6134706D), 48000 Hz, stereo, fltp, 189 kb/s
    Metadata:
      creation_time   : 2023-02-18T11:06:02.000000Z
      handler_name    : GoPro AAC
      timecode        : 11:16:39:34
Stream mapping:
  Stream #0:0 -> #0:0 (copy)
  Stream #0:1 -> #0:1 (copy)
Press [q] to stop, [?] for help
frame=  512 fps=0.0 q=-1.0 size=   66816kB time=00:00:08.52 bitrate=64204.6kbitsframe= 1064 fps=1062 q=-1.0 size=  134144kB time=00:00:17.73 bitrate=61964.8kbitframe= 1685 fps=1122 q=-1.0 size=  209408kB time=00:00:28.09 bitrate=61060.2kbitframe= 2323 fps=1160 q=-1.0 size=  287232kB time=00:00:38.74 bitrate=60736.3kbitframe= 2855 fps=1141 q=-1.0 size=  352256kB time=00:00:47.61 bitrate=60605.4kbitframe= 3496 fps=1164 q=-1.0 size=  430336kB time=00:00:58.30 bitrate=60459.9kbitframe= 4119 fps=1176 q=-1.0 size=  506624kB time=00:01:08.70 bitrate=60409.7kbitframe= 4690 fps=1172 q=-1.0 size=  576000kB time=00:01:18.22 bitrate=60317.4kbitframe= 5300 fps=1177 q=-1.0 size=  650240kB time=00:01:28.40 bitrate=60254.1kbitframe= 5852 fps=1169 q=-1.0 size=  717568kB time=00:01:37.61 bitrate=60219.9kbitframe= 6475 fps=1176 q=-1.0 size=  793600kB time=00:01:48.00 bitrate=60191.6kbitframe= 7161 fps=1192 q=-1.0 size=  877568kB time=00:01:59.46 bitrate=60176.1kbitframe= 7706 fps=1184 q=-1.0 size=  943616kB time=00:02:08.54 bitrate=60135.3kbitframe= 8339 fps=1190 q=-1.0 size= 1020672kB time=00:02:19.10 bitrate=60107.9kbitframe= 8980 fps=1196 q=-1.0 size= 1098752kB time=00:02:29.80 bitrate=60085.6kbitframe= 9506 fps=1187 q=-1.0 size= 1163264kB time=00:02:38.57 bitrate=60094.3kbitframe=10166 fps=1195 q=-1.0 size= 1243648kB time=00:02:49.58 bitrate=60075.5kbitframe=10795 fps=1198 q=-1.0 size= 1320192kB time=00:03:00.07 bitrate=60056.7kbitframe=11325 fps=1191 q=-1.0 size= 1384960kB time=00:03:08.92 bitrate=60054.3kbitframe=11950 fps=1194 q=-1.0 size= 1461248kB time=00:03:19.36 bitrate=60044.9kbitframe=12446 fps=1184 q=-1.0 size= 1521408kB time=00:03:27.63 bitrate=60024.7kbitframe=13109 fps=1191 q=-1.0 size= 1602048kB time=00:03:38.68 bitrate=60013.1kbitframe=13736 fps=1193 q=-1.0 size= 1678592kB time=00:03:49.14 bitrate=60010.0kbitframe=14275 fps=1189 q=-1.0 size= 1744128kB time=00:03:58.13 bitrate=59998.4kbitframe=14825 fps=1185 q=-1.0 size= 1812224kB time=00:04:07.31 bitrate=60027.1kbitframe=15445 fps=1187 q=-1.0 size= 1887232kB time=00:04:17.66 bitrate=60001.4kbitframe=16038 fps=1187 q=-1.0 size= 1959680kB time=00:04:27.56 bitrate=59999.8kbitframe=16570 fps=1183 q=-1.0 size= 2024960kB time=00:04:36.42 bitrate=60010.5kbitframe=17206 fps=1186 q=-1.0 size= 2102016kB time=00:04:47.03 bitrate=59991.3kbitframe=17831 fps=1188 q=-1.0 size= 2178304kB time=00:04:57.46 bitrate=59989.4kbitframe=18362 fps=1184 q=-1.0 size= 2243072kB time=00:05:06.32 bitrate=59986.6kbitframe=19000 fps=1187 q=-1.0 size= 2321152kB time=00:05:16.97 bitrate=59989.4kbitframe=19533 fps=1183 q=-1.0 size= 2386176kB time=00:05:25.85 bitrate=59987.8kbitframe=20138 fps=1184 q=-1.0 size= 2459904kB time=00:05:35.95 bitrate=59983.3kbitframe=20722 fps=1183 q=-1.0 size= 2531072kB time=00:05:45.69 bitrate=59979.2kbitframe=21206 fps=1177 q=-1.0 size= 2589696kB time=00:05:53.77 bitrate=59967.6kbitframe=21886 fps=1182 q=-1.0 size= 2673664kB time=00:06:05.11 bitrate=59988.4kbitframe=22566 fps=1187 q=-1.0 size= 2756864kB time=00:06:16.45 bitrate=59991.1kbitframe=23104 fps=1184 q=-1.0 size= 2821888kB time=00:06:25.43 bitrate=59976.1kbitframe=23690 fps=1183 q=-1.0 size= 2893312kB time=00:06:35.21 bitrate=59973.0kbitframe=24250 fps=1182 q=-1.0 size= 2961408kB time=00:06:44.55 bitrate=59966.9kbitframe=24813 fps=1180 q=-1.0 size= 3030016kB time=00:06:53.94 bitrate=59964.0kbitframe=25409 fps=1181 q=-1.0 size= 3102464kB time=00:07:03.89 bitrate=59957.5kbitframe=25910 fps=1177 q=-1.0 size= 3163648kB time=00:07:12.24 bitrate=59957.7kbitframe=26480 fps=1176 q=-1.0 size= 3233280kB time=00:07:21.75 bitrate=59958.2kbitframe=27048 fps=1175 q=-1.0 size= 3302400kB time=00:07:31.24 bitrate=59952.8kbitframe=27540 fps=1171 q=-1.0 size= 3362048kB time=00:07:39.45 bitrate=59944.6kbitframe=28121 fps=1171 q=-1.0 size= 3433728kB time=00:07:49.13 bitrate=59959.5kbitframe=28724 fps=1171 q=-1.0 size= 3506944kB time=00:07:59.21 bitrate=59950.4kbitframe=29215 fps=1167 q=-1.0 size= 3566848kB time=00:08:07.38 bitrate=59951.6kbitframe=29779 fps=1167 q=-1.0 size= 3635712kB time=00:08:16.81 bitrate=59949.9kbitframe=30306 fps=1164 q=-1.0 size= 3699968kB time=00:08:25.60 bitrate=59948.8kbitframe=30888 fps=1164 q=-1.0 size= 3771136kB time=00:08:35.30 bitrate=59951.0kbitframe=31456 fps=1164 q=-1.0 size= 3840000kB time=00:08:44.77 bitrate=59943.9kbitframe=31929 fps=1160 q=-1.0 size= 3897856kB time=00:08:52.67 bitrate=59945.4kbit[mov,mp4,m4a,3gp,3g2,mj2 @ 0x55ac50549c80] Using non-standard frame rate 59/1
frame=32460 fps=1158 q=-1.0 size= 3962624kB time=00:09:01.53 bitrate=59943.7kbitframe=33025 fps=1158 q=-1.0 size= 4031232kB time=00:09:10.96 bitrate=59938.3kbitframe=33495 fps=1154 q=-1.0 size= 4089088kB time=00:09:18.80 bitrate=59945.4kbitframe=34066 fps=1154 q=-1.0 size= 4158464kB time=00:09:28.33 bitrate=59940.6kbitframe=34641 fps=1154 q=-1.0 size= 4228608kB time=00:09:37.92 bitrate=59940.0kbitframe=35100 fps=1150 q=-1.0 size= 4284416kB time=00:09:45.58 bitrate=59936.8kbitframe=35619 fps=1148 q=-1.0 size= 4347136kB time=00:09:54.24 bitrate=59928.1kbitframe=36113 fps=1145 q=-1.0 size= 4408064kB time=00:10:02.48 bitrate=59936.8kbitframe=36690 fps=1145 q=-1.0 size= 4477952kB time=00:10:12.10 bitrate=59929.5kbitframe=37254 fps=1145 q=-1.0 size= 4547328kB time=00:10:21.51 bitrate=59936.7kbitframe=37690 fps=1141 q=-1.0 size= 4600320kB time=00:10:28.79 bitrate=59933.7kbitframe=38253 fps=1141 q=-1.0 size= 4669184kB time=00:10:38.18 bitrate=59935.6kbitframe=38792 fps=1140 q=-1.0 size= 4734208kB time=00:10:47.17 bitrate=59925.9kbitframe=39266 fps=1137 q=-1.0 size= 4792576kB time=00:10:55.08 bitrate=59932.4kbitframe=39869 fps=1138 q=-1.0 size= 4866048kB time=00:11:05.14 bitrate=59930.8kbitframe=40438 fps=1138 q=-1.0 size= 4934912kB time=00:11:14.63 bitrate=59923.7kbitframe=41030 fps=1139 q=-1.0 size= 5007616kB time=00:11:24.51 bitrate=59929.2kbitframe=41597 fps=1139 q=-1.0 size= 5076992kB time=00:11:33.97 bitrate=59931.3kbitframe=42037 fps=1135 q=-1.0 size= 5130496kB time=00:11:41.31 bitrate=59928.9kbitframe=42600 fps=1135 q=-1.0 size= 5198848kB time=00:11:50.70 bitrate=59924.8kbitframe=43151 fps=1135 q=-1.0 size= 5266176kB time=00:11:59.89 bitrate=59925.7kbitframe=43619 fps=1132 q=-1.0 size= 5323520kB time=00:12:07.70 bitrate=59928.3kbitframe=44152 fps=1131 q=-1.0 size= 5388544kB time=00:12:16.59 bitrate=59928.0kbitframe=44703 fps=1131 q=-1.0 size= 5455872kB time=00:12:25.79 bitrate=59928.9kbitframe=45189 fps=1129 q=-1.0 size= 5515008kB time=00:12:33.90 bitrate=59927.0kbitframe=45725 fps=1128 q=-1.0 size= 5579776kB time=00:12:42.84 bitrate=59920.0kbitframe=46207 fps=1126 q=-1.0 size= 5638912kB time=00:12:50.88 bitrate=59923.4kbitframe=46778 fps=1126 q=-1.0 size= 5709056kB time=00:13:00.40 bitrate=59928.2kbitframe=47356 fps=1127 q=-1.0 size= 5779200kB time=00:13:10.05 bitrate=59924.1kbitframe=47803 fps=1124 q=-1.0 size= 5833984kB time=00:13:17.51 bitrate=59926.5kbitframe=48293 fps=1122 q=-1.0 size= 5893632kB time=00:13:25.68 bitrate=59924.9kbitframe=48806 fps=1121 q=-1.0 size= 5955840kB time=00:13:34.24 bitrate=59920.9kbitframe=49226 fps=1118 q=-1.0 size= 6007040kB time=00:13:41.25 bitrate=59920.4kbitframe=49759 fps=1117 q=-1.0 size= 6072064kB time=00:13:50.14 bitrate=59920.2kbitframe=50240 fps=1115 q=-1.0 size= 6130176kB time=00:13:58.16 bitrate=59914.5kbitframe=50665 fps=1112 q=-1.0 size= 6181888kB time=00:14:05.25 bitrate=59913.1kbitframe=51182 fps=1112 q=-1.0 size= 6246400kB time=00:14:13.88 bitrate=59926.8kbitframe=51629 fps=1109 q=-1.0 size= 6300672kB time=00:14:21.34 bitrate=59924.1kbitframe=52153 fps=1109 q=-1.0 size= 6364160kB time=00:14:30.08 bitrate=59919.8kbitframe=52678 fps=1108 q=-1.0 size= 6428672kB time=00:14:38.84 bitrate=59924.0kbitframe=53153 fps=1106 q=-1.0 size= 6485760kB time=00:14:46.76 bitrate=59915.8kbitframe=53688 fps=1106 q=-1.0 size= 6552064kB time=00:14:55.69 bitrate=59925.2kbitframe=54205 fps=1105 q=-1.0 size= 6615040kB time=00:15:04.31 bitrate=59924.1kbitframe=54647 fps=1103 q=-1.0 size= 6668288kB time=00:15:11.69 bitrate=59917.9kbitframe=55135 fps=1102 q=-1.0 size= 6727424kB time=00:15:19.83 bitrate=59914.2kbitframe=55542 fps=1099 q=-1.0 size= 6777600kB time=00:15:26.62 bitrate=59918.8kbitframe=55966 fps=1096 q=-1.0 size= 6829312kB time=00:15:33.69 bitrate=59918.5kbitframe=56443 fps=1095 q=-1.0 size= 6887424kB time=00:15:41.65 bitrate=59917.7kbitframe=56833 fps=1092 q=-1.0 size= 6935040kB time=00:15:48.16 bitrate=59917.9kbitframe=57324 fps=1091 q=-1.0 size= 6994688kB time=00:15:56.35 bitrate=59915.7kbitframe=57811 fps=1090 q=-1.0 size= 7054592kB time=00:16:04.48 bitrate=59919.6kbitframe=58287 fps=1088 q=-1.0 size= 7112192kB time=00:16:12.41 bitrate=59915.6kbitframe=58914 fps=1090 q=-1.0 size= 7188736kB time=00:16:22.87 bitrate=59916.0kbitframe=59529 fps=1091 q=-1.0 size= 7263744kB time=00:16:33.13 bitrate=59915.7kbitframe=59989 fps=1090 q=-1.0 size= 7320320kB time=00:16:40.81 bitrate=59919.3kbitframe=60506 fps=1089 q=-1.0 size= 7383040kB time=00:16:49.43 bitrate=59916.3kbitframe=60929 fps=1087 q=-1.0 size= 7434752kB time=00:16:56.49 bitrate=59917.1kbitframe=61466 fps=1087 q=-1.0 size= 7499520kB time=00:17:05.45 bitrate=59911.0kbitframe=61933 fps=1086 q=-1.0 size= 7556608kB time=00:17:13.24 bitrate=59911.9kbitframe=62449 fps=1085 q=-1.0 size= 7620096kB time=00:17:21.85 bitrate=59916.1kbitframe=62931 fps=1084 q=-1.0 size= 7678464kB time=00:17:29.89 bitrate=59912.6kbitframe=63429 fps=1083 q=-1.0 size= 7739648kB time=00:17:38.20 bitrate=59915.8kbitframe=63873 fps=1082 q=-1.0 size= 7793664kB time=00:17:45.61 bitrate=59914.6kbit[mov,mp4,m4a,3gp,3g2,mj2 @ 0x55ac5055b240] Using non-standard frame rate 59/1
frame=64378 fps=1081 q=-1.0 size= 7854592kB time=00:17:54.03 bitrate=59909.3kbitframe=64741 fps=1078 q=-1.0 size= 7899136kB time=00:18:00.09 bitrate=59911.3kbitframe=65179 fps=1076 q=-1.0 size= 7953152kB time=00:18:07.40 bitrate=59915.1kbitframe=65641 fps=1075 q=-1.0 size= 8009472kB time=00:18:15.11 bitrate=59915.1kbitframe=66021 fps=1073 q=-1.0 size= 8055040kB time=00:18:21.44 bitrate=59909.3kbitframe=66467 fps=1071 q=-1.0 size= 8109824kB time=00:18:28.88 bitrate=59912.0kbitframe=66871 fps=1069 q=-1.0 size= 8159488kB time=00:18:35.63 bitrate=59914.5kbitframe=67335 fps=1068 q=-1.0 size= 8216064kB time=00:18:43.36 bitrate=59914.4kbitframe=67825 fps=1067 q=-1.0 size= 8275200kB time=00:18:51.54 bitrate=59909.7kbitframe=68282 fps=1066 q=-1.0 size= 8331008kB time=00:18:59.16 bitrate=59910.0kbitframe=68792 fps=1066 q=-1.0 size= 8392704kB time=00:19:07.67 bitrate=59906.3kbitframe=69276 fps=1065 q=-1.0 size= 8452864kB time=00:19:15.75 bitrate=59914.1kbitframe=69709 fps=1063 q=-1.0 size= 8505856kB time=00:19:22.97 bitrate=59915.3kbitframe=70202 fps=1063 q=-1.0 size= 8565760kB time=00:19:31.20 bitrate=59913.5kbitframe=70659 fps=1062 q=-1.0 size= 8621312kB time=00:19:38.82 bitrate=59912.0kbitframe=71122 fps=1061 q=-1.0 size= 8677888kB time=00:19:46.54 bitrate=59912.6kbitframe=71585 fps=1060 q=-1.0 size= 8733952kB time=00:19:54.27 bitrate=59909.7kbitframe=72024 fps=1058 q=-1.0 size= 8787456kB time=00:20:01.59 bitrate=59909.3kbitframe=72541 fps=1058 q=-1.0 size= 8850944kB time=00:20:10.22 bitrate=59912.0kbitframe=73060 fps=1058 q=-1.0 size= 8914176kB time=00:20:18.88 bitrate=59911.2kbitframe=73546 fps=1057 q=-1.0 size= 8973056kB time=00:20:26.98 bitrate=59908.6kbitframe=74070 fps=1057 q=-1.0 size= 9036544kB time=00:20:35.73 bitrate=59905.7kbitframe=74596 fps=1057 q=-1.0 size= 9101568kB time=00:20:44.50 bitrate=59911.3kbitframe=75054 fps=1056 q=-1.0 size= 9157888kB time=00:20:52.14 bitrate=59914.2kbitframe=75497 fps=1055 q=-1.0 size= 9211136kB time=00:20:59.53 bitrate=59908.9kbitframe=75968 fps=1054 q=-1.0 size= 9268736kB time=00:21:07.39 bitrate=59909.8kbitframe=76432 fps=1053 q=-1.0 size= 9325312kB time=00:21:15.14 bitrate=59909.4kbitframe=76940 fps=1053 q=-1.0 size= 9387264kB time=00:21:23.61 bitrate=59909.4kbitframe=77422 fps=1052 q=-1.0 size= 9445888kB time=00:21:31.65 bitrate=59908.2kbitframe=77853 fps=1051 q=-1.0 size= 9498112kB time=00:21:38.84 bitrate=59906.0kbitframe=78345 fps=1051 q=-1.0 size= 9558784kB time=00:21:47.05 bitrate=59909.8kbitframe=78791 fps=1050 q=-1.0 size= 9613056kB time=00:21:54.49 bitrate=59909.1kbitframe=79232 fps=1049 q=-1.0 size= 9666816kB time=00:22:01.85 bitrate=59908.8kbitframe=79705 fps=1048 q=-1.0 size= 9724160kB time=00:22:09.74 bitrate=59906.6kbitframe=80195 fps=1047 q=-1.0 size= 9784576kB time=00:22:17.91 bitrate=59910.5kbitframe=80628 fps=1046 q=-1.0 size= 9837056kB time=00:22:25.14 bitrate=59908.3kbitframe=81101 fps=1046 q=-1.0 size= 9894656kB time=00:22:33.03 bitrate=59907.7kbitframe=81525 fps=1044 q=-1.0 size= 9946368kB time=00:22:40.11 bitrate=59907.3kbitframe=82035 fps=1044 q=-1.0 size=10008576kB time=00:22:48.61 bitrate=59907.5kbitframe=82546 fps=1044 q=-1.0 size=10071040kB time=00:22:57.13 bitrate=59908.2kbitframe=82995 fps=1043 q=-1.0 size=10125568kB time=00:23:04.63 bitrate=59906.7kbitframe=83510 fps=1043 q=-1.0 size=10188288kB time=00:23:13.22 bitrate=59906.1kbitframe=83991 fps=1042 q=-1.0 size=10246400kB time=00:23:21.24 bitrate=59902.7kbitframe=84427 fps=1041 q=-1.0 size=10300928kB time=00:23:28.52 bitrate=59910.5kbitframe=84991 fps=1042 q=-1.0 size=10369024kB time=00:23:37.93 bitrate=59906.4kbitframe=85484 fps=1042 q=-1.0 size=10429696kB time=00:23:46.16 bitrate=59909.1kbitframe=85978 fps=1041 q=-1.0 size=10489344kB time=00:23:54.39 bitrate=59905.8kbitframe=86509 fps=1041 q=-1.0 size=10553856kB time=00:24:03.25 bitrate=59904.3kbitframe=87000 fps=1041 q=-1.0 size=10613504kB time=00:24:11.44 bitrate=59902.9kbitframe=87549 fps=1041 q=-1.0 size=10681600kB time=00:24:20.61 bitrate=59908.8kbitframe=88095 fps=1042 q=-1.0 size=10747648kB time=00:24:29.71 bitrate=59906.0kbitframe=88505 fps=1040 q=-1.0 size=10797824kB time=00:24:36.55 bitrate=59906.8kbitframe=88960 fps=1040 q=-1.0 size=10853376kB time=00:24:44.14 bitrate=59907.1kbitframe=89434 fps=1039 q=-1.0 size=10910720kB time=00:24:52.05 bitrate=59904.4kbitframe=89874 fps=1038 q=-1.0 size=10964736kB time=00:24:59.39 bitrate=59906.1kbitframe=90358 fps=1038 q=-1.0 size=11023360kB time=00:25:07.46 bitrate=59903.9kbitframe=90784 fps=1037 q=-1.0 size=11075584kB time=00:25:14.57 bitrate=59905.3kbitframe=91337 fps=1037 q=-1.0 size=11142912kB time=00:25:23.80 bitrate=59904.6kbitframe=91810 fps=1037 q=-1.0 size=11200768kB time=00:25:31.69 bitrate=59905.4kbitframe=92232 fps=1035 q=-1.0 size=11251968kB time=00:25:38.73 bitrate=59903.9kbitframe=92721 fps=1035 q=-1.0 size=11311616kB time=00:25:46.89 bitrate=59903.8kbitframe=93217 fps=1035 q=-1.0 size=11372288kB time=00:25:55.16 bitrate=59904.7kbitframe=93604 fps=1033 q=-1.0 size=11419904kB time=00:26:01.62 bitrate=59906.6kbitframe=94082 fps=1033 q=-1.0 size=11478016kB time=00:26:09.59 bitrate=59905.7kbitframe=94625 fps=1033 q=-1.0 size=11543808kB time=00:26:18.65 bitrate=59903.4kbitframe=95053 fps=1032 q=-1.0 size=11595776kB time=00:26:25.79 bitrate=59902.1kbitframe=95536 fps=1032 q=-1.0 size=11654912kB time=00:26:33.85 bitrate=59903.2kbitframe=95947 fps=1031 q=-1.0 size=11704832kB time=00:26:40.71 bitrate=59902.1kbit[mov,mp4,m4a,3gp,3g2,mj2 @ 0x55ac5055b240] Using non-standard frame rate 59/1
frame=96425 fps=1030 q=-1.0 size=11763456kB time=00:26:48.68 bitrate=59903.6kbitframe=96932 fps=1030 q=-1.0 size=11825664kB time=00:26:57.14 bitrate=59905.4kbitframe=97374 fps=1030 q=-1.0 size=11878912kB time=00:27:04.51 bitrate=59902.0kbitframe=97880 fps=1029 q=-1.0 size=11940864kB time=00:27:12.96 bitrate=59903.2kbitframe=98364 fps=1029 q=-1.0 size=12000000kB time=00:27:21.03 bitrate=59903.6kbitframe=98787 fps=1028 q=-1.0 size=12051456kB time=00:27:28.09 bitrate=59902.9kbitframe=99290 fps=1028 q=-1.0 size=12112640kB time=00:27:36.48 bitrate=59902.0kbitframe=99723 fps=1027 q=-1.0 size=12165632kB time=00:27:43.71 bitrate=59902.7kbitframe=100197 fps=1027 q=-1.0 size=12223232kB time=00:27:51.62 bitrate=59901.3kbiframe=100686 fps=1027 q=-1.0 size=12282880kB time=00:27:59.77 bitrate=59901.7kbiframe=101144 fps=1026 q=-1.0 size=12338176kB time=00:28:07.41 bitrate=59898.9kbiframe=101683 fps=1026 q=-1.0 size=12404224kB time=00:28:16.40 bitrate=59900.3kbiframe=102202 fps=1026 q=-1.0 size=12468224kB time=00:28:25.06 bitrate=59903.6kbiframe=102680 fps=1026 q=-1.0 size=12526080kB time=00:28:33.04 bitrate=59901.4kbiframe=103220 fps=1026 q=-1.0 size=12592128kB time=00:28:42.05 bitrate=59902.3kbiframe=103741 fps=1026 q=-1.0 size=12656384kB time=00:28:50.74 bitrate=59905.6kbiframe=104184 fps=1026 q=-1.0 size=12709888kB time=00:28:58.13 bitrate=59903.0kbiframe=104698 fps=1026 q=-1.0 size=12772352kB time=00:29:06.72 bitrate=59901.4kbiframe=105139 fps=1025 q=-1.0 size=12825856kB time=00:29:14.06 bitrate=59900.5kbiframe=105638 fps=1025 q=-1.0 size=12886784kB time=00:29:22.39 bitrate=59900.7kbiframe=106137 fps=1025 q=-1.0 size=12947712kB time=00:29:30.71 bitrate=59901.0kbiframe=106550 fps=1024 q=-1.0 size=12998144kB time=00:29:37.61 bitrate=59901.0kbiframe=107042 fps=1023 q=-1.0 size=13058560kB time=00:29:45.81 bitrate=59903.0kbiframe=107546 fps=1023 q=-1.0 size=13119744kB time=00:29:54.22 bitrate=59901.7kbiframe=108006 fps=1023 q=-1.0 size=13175808kB time=00:30:01.91 bitrate=59901.0kbiframe=108477 fps=1022 q=-1.0 size=13232896kB time=00:30:09.76 bitrate=59899.5kbiframe=108939 fps=1022 q=-1.0 size=13289472kB time=00:30:17.46 bitrate=59900.7kbiframe=109372 fps=1021 q=-1.0 size=13342720kB time=00:30:24.68 bitrate=59902.7kbiframe=109855 fps=1021 q=-1.0 size=13401600kB time=00:30:32.75 bitrate=59902.0kbiframe=110294 fps=1020 q=-1.0 size=13455104kB time=00:30:40.07 bitrate=59902.0kbiframe=110826 fps=1021 q=-1.0 size=13520128kB time=00:30:48.94 bitrate=59902.8kbiframe=111345 fps=1021 q=-1.0 size=13583104kB time=00:30:57.61 bitrate=59901.0kbiframe=111745 fps=1020 q=-1.0 size=13632000kB time=00:31:04.28 bitrate=59901.3kbiframe=112230 fps=1019 q=-1.0 size=13690880kB time=00:31:12.36 bitrate=59900.5kbiframe=112738 fps=1019 q=-1.0 size=13753088kB time=00:31:20.84 bitrate=59901.5kbiframe=113126 fps=1018 q=-1.0 size=13800192kB time=00:31:27.31 bitrate=59900.5kbiframe=113583 fps=1018 q=-1.0 size=13856256kB time=00:31:34.94 bitrate=59901.9kbiframe=114046 fps=1017 q=-1.0 size=13912064kB time=00:31:42.66 bitrate=59898.9kbiframe=114548 fps=1017 q=-1.0 size=13972224kB time=00:31:51.05 bitrate=59894.0kbiframe=114688 fps=1017 q=-1.0 Lsize=13991370kB time=00:31:53.37 bitrate=59903.2kbits/s speed=  17x
video:13944354kB audio:44223kB subtitle:0kB other streams:0kB global headers:0kB muxing overhead: 0.019972%
GX010078.MP4  GX020078.MP4  GX030078.MP4  GX040078.MP4


File segments: 4

File: GX010079.MP4
------------------

Multiple segments found, merging...
Creating 'merged' directory...
ffmpeg version 4.2.7-0ubuntu0.1 Copyright (c) 2000-2022 the FFmpeg developers
  built with gcc 9 (Ubuntu 9.4.0-1ubuntu1~20.04.1)
  configuration: --prefix=/usr --extra-version=0ubuntu0.1 --toolchain=hardened --libdir=/usr/lib/x86_64-linux-gnu --incdir=/usr/include/x86_64-linux-gnu --arch=amd64 --enable-gpl --disable-stripping --enable-avresample --disable-filter=resample --enable-avisynth --enable-gnutls --enable-ladspa --enable-libaom --enable-libass --enable-libbluray --enable-libbs2b --enable-libcaca --enable-libcdio --enable-libcodec2 --enable-libflite --enable-libfontconfig --enable-libfreetype --enable-libfribidi --enable-libgme --enable-libgsm --enable-libjack --enable-libmp3lame --enable-libmysofa --enable-libopenjpeg --enable-libopenmpt --enable-libopus --enable-libpulse --enable-librsvg --enable-librubberband --enable-libshine --enable-libsnappy --enable-libsoxr --enable-libspeex --enable-libssh --enable-libtheora --enable-libtwolame --enable-libvidstab --enable-libvorbis --enable-libvpx --enable-libwavpack --enable-libwebp --enable-libx265 --enable-libxml2 --enable-libxvid --enable-libzmq --enable-libzvbi --enable-lv2 --enable-omx --enable-openal --enable-opencl --enable-opengl --enable-sdl2 --enable-libdc1394 --enable-libdrm --enable-libiec61883 --enable-nvenc --enable-chromaprint --enable-frei0r --enable-libx264 --enable-shared
  libavutil      56. 31.100 / 56. 31.100
  libavcodec     58. 54.100 / 58. 54.100
  libavformat    58. 29.100 / 58. 29.100
  libavdevice    58.  8.100 / 58.  8.100
  libavfilter     7. 57.100 /  7. 57.100
  libavresample   4.  0.  0 /  4.  0.  0
  libswscale      5.  5.100 /  5.  5.100
  libswresample   3.  5.100 /  3.  5.100
  libpostproc    55.  5.100 / 55.  5.100
[mov,mp4,m4a,3gp,3g2,mj2 @ 0x55fb4a5af6c0] Using non-standard frame rate 59/1
[concat @ 0x55fb4a5a5340] Could not find codec parameters for stream 2 (Unknown: none): unknown codec
Consider increasing the value for the 'analyzeduration' and 'probesize' options
Input #0, concat, from 'filelist.txt':
  Duration: N/A, start: 0.000000, bitrate: 59933 kb/s
    Stream #0:0(eng): Video: hevc (Main) (hvc1 / 0x31637668), yuvj420p(pc, bt709), 3840x2160 [SAR 1:1 DAR 16:9], 59688 kb/s, 59.94 fps, 59.94 tbr, 60k tbn, 59.94 tbc
    Metadata:
      creation_time   : 2023-02-18T11:40:56.000000Z
      handler_name    : GoPro H.265
      encoder         : GoPro H.265 encoder
      timecode        : 11:52:06:57
    Stream #0:1(eng): Audio: aac (LC) (mp4a / 0x6134706D), 48000 Hz, stereo, fltp, 189 kb/s
    Metadata:
      creation_time   : 2023-02-18T11:40:56.000000Z
      handler_name    : GoPro AAC
      timecode        : 11:52:06:57
    Stream #0:2: Unknown: none
    Stream #0:3(eng): Data: bin_data (gpmd / 0x646D7067), 56 kb/s
    Metadata:
      creation_time   : 2023-02-18T11:40:56.000000Z
      handler_name    : GoPro MET
Output #0, mp4, to 'merged/GX010079.MP4':
  Metadata:
    encoder         : Lavf58.29.100
    Stream #0:0(eng): Video: hevc (Main) (hvc1 / 0x31637668), yuvj420p(pc, bt709), 3840x2160 [SAR 1:1 DAR 16:9], q=2-31, 59688 kb/s, 0.02 fps, 59.94 tbr, 60k tbn, 60k tbc
    Metadata:
      creation_time   : 2023-02-18T11:40:56.000000Z
      handler_name    : GoPro H.265
      encoder         : GoPro H.265 encoder
      timecode        : 11:52:06:57
    Stream #0:1(eng): Audio: aac (LC) (mp4a / 0x6134706D), 48000 Hz, stereo, fltp, 189 kb/s
    Metadata:
      creation_time   : 2023-02-18T11:40:56.000000Z
      handler_name    : GoPro AAC
      timecode        : 11:52:06:57
Stream mapping:
  Stream #0:0 -> #0:0 (copy)
  Stream #0:1 -> #0:1 (copy)
Press [q] to stop, [?] for help
frame=  401 fps=0.0 q=-1.0 size=   48896kB time=00:00:06.67 bitrate=60023.3kbitsframe=  883 fps=883 q=-1.0 size=  107776kB time=00:00:14.71 bitrate=60001.2kbitsframe= 1259 fps=838 q=-1.0 size=  153600kB time=00:00:20.99 bitrate=59941.5kbitsframe= 1609 fps=804 q=-1.0 size=  196352kB time=00:00:26.83 bitrate=59935.8kbitsframe= 2050 fps=819 q=-1.0 size=  249856kB time=00:00:34.18 bitrate=59876.3kbitsframe= 2486 fps=828 q=-1.0 size=  303104kB time=00:00:41.45 bitrate=59892.5kbitsframe= 2938 fps=839 q=-1.0 size=  358400kB time=00:00:49.00 bitrate=59915.4kbitsframe= 3418 fps=854 q=-1.0 size=  416256kB time=00:00:57.00 bitrate=59816.7kbitsframe= 3825 fps=849 q=-1.0 size=  466432kB time=00:01:03.79 bitrate=59893.2kbitsframe= 4292 fps=857 q=-1.0 size=  523520kB time=00:01:11.58 bitrate=59907.6kbitsframe= 4665 fps=847 q=-1.0 size=  569088kB time=00:01:17.82 bitrate=59904.0kbitsframe= 5043 fps=839 q=-1.0 size=  615168kB time=00:01:24.11 bitrate=59909.8kbitsframe= 5454 fps=838 q=-1.0 size=  665088kB time=00:01:30.97 bitrate=59889.5kbitsframe= 5887 fps=840 q=-1.0 size=  718080kB time=00:01:38.19 bitrate=59904.5kbitsframe= 6342 fps=845 q=-1.0 size=  773376kB time=00:01:45.79 bitrate=59886.3kbitsframe= 6702 fps=837 q=-1.0 size=  817408kB time=00:01:51.80 bitrate=59890.2kbitsframe= 7138 fps=839 q=-1.0 size=  870400kB time=00:01:59.06 bitrate=59883.9kbitsframe= 7589 fps=842 q=-1.0 size=  925440kB time=00:02:06.59 bitrate=59886.4kbitsframe= 7980 fps=839 q=-1.0 size=  972800kB time=00:02:13.11 bitrate=59866.3kbitsframe= 8415 fps=841 q=-1.0 size= 1026560kB time=00:02:20.37 bitrate=59908.6kbitsframe= 8884 fps=845 q=-1.0 size= 1083392kB time=00:02:28.19 bitrate=59887.1kbitsframe= 9326 fps=847 q=-1.0 size= 1137408kB time=00:02:35.57 bitrate=59892.8kbitsframe= 9720 fps=844 q=-1.0 size= 1185024kB time=00:02:42.15 bitrate=59867.0kbitsframe=10142 fps=844 q=-1.0 size= 1237504kB time=00:02:49.18 bitrate=59920.2kbitsframe=10624 fps=849 q=-1.0 size= 1296128kB time=00:02:57.22 bitrate=59911.2kbitsframe=11066 fps=850 q=-1.0 size= 1349632kB time=00:03:04.60 bitrate=59892.3kbitsframe=11570 fps=856 q=-1.0 size= 1411072kB time=00:03:13.00 bitrate=59890.8kbitsframe=12029 fps=858 q=-1.0 size= 1467392kB time=00:03:20.68 bitrate=59899.9kbitsframe=12513 fps=862 q=-1.0 size= 1526784kB time=00:03:28.74 bitrate=59916.7kbitsframe=12967 fps=863 q=-1.0 size= 1581568kB time=00:03:36.32 bitrate=59893.7kbitsframe=13412 fps=864 q=-1.0 size= 1635584kB time=00:03:43.74 bitrate=59885.1kbitsframe=13911 fps=868 q=-1.0 size= 1696512kB time=00:03:52.06 bitrate=59887.6kbitsframe=14376 fps=870 q=-1.0 size= 1753088kB time=00:03:59.82 bitrate=59882.9kbitsframe=14791 fps=869 q=-1.0 size= 1804288kB time=00:04:06.76 bitrate=59898.6kbitsframe=15221 fps=869 q=-1.0 size= 1856512kB time=00:04:13.93 bitrate=59892.5kbitsframe=15661 fps=869 q=-1.0 size= 1909504kB time=00:04:21.26 bitrate=59873.7kbitsframe=16105 fps=870 q=-1.0 size= 1963776kB time=00:04:28.66 bitrate=59877.7kbitsframe=16570 fps=871 q=-1.0 size= 2020608kB time=00:04:36.43 bitrate=59879.1kbitsframe=16972 fps=869 q=-1.0 size= 2070016kB time=00:04:43.13 bitrate=59892.0kbitsframe=17432 fps=871 q=-1.0 size= 2126336kB time=00:04:50.80 bitrate=59898.6kbitsframe=17897 fps=872 q=-1.0 size= 2182400kB time=00:04:58.56 bitrate=59880.5kbitsframe=18194 fps=865 q=-1.0 size= 2219008kB time=00:05:03.53 bitrate=59888.9kbitsframe=18682 fps=868 q=-1.0 size= 2278400kB time=00:05:11.66 bitrate=59887.6kbitsframe=19125 fps=868 q=-1.0 size= 2332672kB time=00:05:19.05 bitrate=59893.8kbitsframe=19560 fps=868 q=-1.0 size= 2385408kB time=00:05:26.31 bitrate=59884.7kbitsframe=20074 fps=872 q=-1.0 size= 2448384kB time=00:05:34.88 bitrate=59892.8kbitsframe=20510 fps=872 q=-1.0 size= 2501376kB time=00:05:42.15 bitrate=59888.2kbitsframe=20957 fps=872 q=-1.0 size= 2555392kB time=00:05:49.61 bitrate=59876.5kbitsframe=21395 fps=872 q=-1.0 size= 2609152kB time=00:05:56.92 bitrate=59884.5kbitsframe=21818 fps=872 q=-1.0 size= 2660608kB time=00:06:03.98 bitrate=59881.5kbitsframe=22295 fps=873 q=-1.0 size= 2718976kB time=00:06:11.94 bitrate=59884.5kbitsframe=22802 fps=876 q=-1.0 size= 2780672kB time=00:06:20.39 bitrate=59882.9kbitsframe=23187 fps=874 q=-1.0 size= 2827776kB time=00:06:26.81 bitrate=59886.1kbitsframe=23648 fps=875 q=-1.0 size= 2884096kB time=00:06:34.51 bitrate=59888.1kbitsframe=24018 fps=872 q=-1.0 size= 2929152kB time=00:06:40.68 bitrate=59886.7kbitsframe=24444 fps=872 q=-1.0 size= 2980864kB time=00:06:47.79 bitrate=59881.8kbitsframe=24837 fps=870 q=-1.0 size= 3028736kB time=00:06:54.34 bitrate=59880.7kbitsframe=25263 fps=870 q=-1.0 size= 3080704kB time=00:07:01.45 bitrate=59881.0kbitsframe=25716 fps=871 q=-1.0 size= 3135744kB time=00:07:09.01 bitrate=59877.0kbitsframe=26111 fps=869 q=-1.0 size= 3184384kB time=00:07:15.60 bitrate=59885.6kbitsframe=26556 fps=870 q=-1.0 size= 3238912kB time=00:07:23.02 bitrate=59890.3kbitsframe=27022 fps=871 q=-1.0 size= 3295488kB time=00:07:30.80 bitrate=59886.0kbitsframe=27447 fps=870 q=-1.0 size= 3347200kB time=00:07:37.89 bitrate=59883.8kbitsframe=27906 fps=871 q=-1.0 size= 3403520kB time=00:07:45.54 bitrate=59889.9kbitsframe=28351 fps=871 q=-1.0 size= 3458048kB time=00:07:52.98 bitrate=59893.1kbitsframe=28715 fps=869 q=-1.0 size= 3502080kB time=00:07:59.06 bitrate=59885.9kbitsframe=29049 fps=866 q=-1.0 size= 3542272kB time=00:08:04.61 bitrate=59878.8kbitsframe=29364 fps=862 q=-1.0 size= 3580928kB time=00:08:09.87 bitrate=59882.3kbitsframe=29703 fps=860 q=-1.0 size= 3623168kB time=00:08:15.53 bitrate=59897.4kbitsframe=30078 fps=858 q=-1.0 size= 3668480kB time=00:08:21.78 bitrate=59890.6kbitsframe=30416 fps=856 q=-1.0 size= 3709440kB time=00:08:27.43 bitrate=59885.0kbitsframe=30794 fps=854 q=-1.0 size= 3756032kB time=00:08:33.72 bitrate=59894.1kbitsframe=31141 fps=852 q=-1.0 size= 3797760kB time=00:08:39.51 bitrate=59884.7kbitsframe=31520 fps=851 q=-1.0 size= 3844096kB time=00:08:45.84 bitrate=59886.5kbitsframe=31940 fps=851 q=-1.0 size= 3895296kB time=00:08:52.84 bitrate=59886.1kbits[mov,mp4,m4a,3gp,3g2,mj2 @ 0x55fb4a5fb740] Using non-standard frame rate 59/1
frame=32333 fps=850 q=-1.0 size= 3943680kB time=00:08:59.42 bitrate=59891.3kbitsframe=32813 fps=851 q=-1.0 size= 4001280kB time=00:09:07.42 bitrate=59877.2kbitsframe=33219 fps=851 q=-1.0 size= 4050944kB time=00:09:14.20 bitrate=59879.5kbitsframe=33640 fps=851 q=-1.0 size= 4102656kB time=00:09:21.22 bitrate=59884.9kbitsframe=34081 fps=851 q=-1.0 size= 4156160kB time=00:09:28.58 bitrate=59880.9kbitsframe=34512 fps=851 q=-1.0 size= 4208896kB time=00:09:35.77 bitrate=59883.4kbitsframe=34977 fps=852 q=-1.0 size= 4265728kB time=00:09:43.53 bitrate=59885.1kbitsframe=35445 fps=853 q=-1.0 size= 4322816kB time=00:09:51.33 bitrate=59885.3kbitsframe=35839 fps=852 q=-1.0 size= 4370432kB time=00:09:57.91 bitrate=59879.3kbitsframe=36263 fps=852 q=-1.0 size= 4422656kB time=00:10:04.98 bitrate=59886.3kbitsframe=36730 fps=853 q=-1.0 size= 4479744kB time=00:10:12.77 bitrate=59888.1kbitsframe=37156 fps=853 q=-1.0 size= 4530944kB time=00:10:19.88 bitrate=59878.1kbitsframe=37617 fps=854 q=-1.0 size= 4587264kB time=00:10:27.57 bitrate=59879.4kbitsframe=38079 fps=855 q=-1.0 size= 4643328kB time=00:10:35.28 bitrate=59875.9kbitsframe=38481 fps=854 q=-1.0 size= 4692736kB time=00:10:41.99 bitrate=59880.8kbitsframe=38957 fps=855 q=-1.0 size= 4750592kB time=00:10:49.93 bitrate=59878.4kbitsframe=39386 fps=855 q=-1.0 size= 4803584kB time=00:10:57.08 bitrate=59886.9kbitsframe=39849 fps=856 q=-1.0 size= 4859904kB time=00:11:04.81 bitrate=59885.0kbitsframe=40319 fps=857 q=-1.0 size= 4916736kB time=00:11:12.65 bitrate=59879.1kbitsframe=40737 fps=857 q=-1.0 size= 4967936kB time=00:11:19.62 bitrate=59881.8kbitsframe=41221 fps=858 q=-1.0 size= 5027072kB time=00:11:27.70 bitrate=59883.1kbitsframe=41725 fps=859 q=-1.0 size= 5088512kB time=00:11:36.11 bitrate=59882.8kbitsframe=42147 fps=859 q=-1.0 size= 5139968kB time=00:11:43.15 bitrate=59882.7kbitsframe=42619 fps=860 q=-1.0 size= 5197824kB time=00:11:51.02 bitrate=59886.1kbitsframe=43093 fps=861 q=-1.0 size= 5255680kB time=00:11:58.93 bitrate=59886.7kbitsframe=43506 fps=860 q=-1.0 size= 5306112kB time=00:12:05.82 bitrate=59887.3kbitsframe=43978 fps=861 q=-1.0 size= 5363200kB time=00:12:13.69 bitrate=59882.0kbitsframe=44394 fps=861 q=-1.0 size= 5413888kB time=00:12:20.63 bitrate=59881.5kbitsframe=44876 fps=862 q=-1.0 size= 5472768kB time=00:12:28.67 bitrate=59882.6kbitsframe=45364 fps=863 q=-1.0 size= 5532416kB time=00:12:36.82 bitrate=59884.1kbitsframe=45778 fps=863 q=-1.0 size= 5582848kB time=00:12:43.72 bitrate=59883.5kbitsframe=46254 fps=864 q=-1.0 size= 5640704kB time=00:12:51.66 bitrate=59881.4kbitsframe=46715 fps=864 q=-1.0 size= 5697536kB time=00:12:59.36 bitrate=59887.8kbitsframe=47117 fps=864 q=-1.0 size= 5746432kB time=00:13:06.06 bitrate=59886.4kbitsframe=47579 fps=864 q=-1.0 size= 5802240kB time=00:13:13.77 bitrate=59880.9kbitsframe=48040 fps=865 q=-1.0 size= 5859072kB time=00:13:21.46 bitrate=59887.2kbitsframe=48571 fps=866 q=-1.0 size= 5924352kB time=00:13:30.32 bitrate=59892.4kbitsframe=49061 fps=867 q=-1.0 size= 5983232kB time=00:13:38.49 bitrate=59883.5kbitsframe=49487 fps=867 q=-1.0 size= 6035200kB time=00:13:45.60 bitrate=59883.7kbitsframe=49992 fps=868 q=-1.0 size= 6096896kB time=00:13:54.03 bitrate=59884.7kbitsframe=50528 fps=870 q=-1.0 size= 6162688kB time=00:14:02.97 bitrate=59888.8kbitsframe=51001 fps=871 q=-1.0 size= 6219776kB time=00:14:10.86 bitrate=59883.0kbitsframe=51453 fps=871 q=-1.0 size= 6274560kB time=00:14:18.40 bitrate=59879.8kbitsframe=51908 fps=871 q=-1.0 size= 6330368kB time=00:14:25.99 bitrate=59882.8kbitsframe=52383 fps=872 q=-1.0 size= 6388736kB time=00:14:33.92 bitrate=59887.0kbitsframe=52799 fps=872 q=-1.0 size= 6439424kB time=00:14:40.86 bitrate=59886.5kbitsframe=53291 fps=873 q=-1.0 size= 6499072kB time=00:14:49.07 bitrate=59883.2kbitsframe=53665 fps=872 q=-1.0 size= 6544640kB time=00:14:55.30 bitrate=59882.8kbitsframe=53984 fps=870 q=-1.0 size= 6583552kB time=00:15:00.63 bitrate=59882.9kbitsframe=54324 fps=868 q=-1.0 size= 6625024kB time=00:15:06.30 bitrate=59883.0kbitsframe=54752 fps=868 q=-1.0 size= 6676736kB time=00:15:13.44 bitrate=59878.6kbitsframe=55208 fps=868 q=-1.0 size= 6732800kB time=00:15:21.05 bitrate=59882.7kbitsframe=55596 fps=868 q=-1.0 size= 6780416kB time=00:15:27.52 bitrate=59885.3kbitsframe=56057 fps=868 q=-1.0 size= 6836480kB time=00:15:35.21 bitrate=59883.9kbitsframe=56539 fps=869 q=-1.0 size= 6895360kB time=00:15:43.25 bitrate=59884.8kbitsframe=56932 fps=868 q=-1.0 size= 6942464kB time=00:15:49.81 bitrate=59877.7kbitsframe=57353 fps=868 q=-1.0 size= 6995200kB time=00:15:56.83 bitrate=59889.6kbitsframe=57790 fps=868 q=-1.0 size= 7048448kB time=00:16:04.12 bitrate=59889.2kbitsframe=58233 fps=868 q=-1.0 size= 7102208kB time=00:16:11.51 bitrate=59886.9kbitsframe=58753 fps=869 q=-1.0 size= 7165440kB time=00:16:20.19 bitrate=59885.3kbitsframe=59283 fps=871 q=-1.0 size= 7230464kB time=00:16:29.03 bitrate=59888.5kbitsframe=59747 fps=871 q=-1.0 size= 7286784kB time=00:16:36.77 bitrate=59886.3kbitsframe=60281 fps=873 q=-1.0 size= 7352320kB time=00:16:45.68 bitrate=59889.6kbitsframe=60753 fps=873 q=-1.0 size= 7409664kB time=00:16:53.56 bitrate=59887.8kbitsframe=61261 fps=874 q=-1.0 size= 7471872kB time=00:17:02.03 bitrate=59889.8kbitsframe=61951 fps=878 q=-1.0 size= 7555840kB time=00:17:13.54 bitrate=59888.3kbitsframe=62580 fps=880 q=-1.0 size= 7631360kB time=00:17:24.04 bitrate=59878.9kbitsframe=63277 fps=884 q=-1.0 size= 7717120kB time=00:17:35.66 bitrate=59884.9kbitsframe=63915 fps=887 q=-1.0 size= 7794944kB time=00:17:46.31 bitrate=59885.0kbits[mov,mp4,m4a,3gp,3g2,mj2 @ 0x55fb4a5fb740] Using non-standard frame rate 59/1
frame=64584 fps=890 q=-1.0 size= 7876352kB time=00:17:57.47 bitrate=59883.6kbitsframe=65341 fps=894 q=-1.0 size= 7968512kB time=00:18:10.10 bitrate=59882.4kbitsframe=66027 fps=897 q=-1.0 size= 8052224kB time=00:18:21.54 bitrate=59882.8kbitsframe=66801 fps=902 q=-1.0 size= 8146944kB time=00:18:34.46 bitrate=59885.2kbitsframe=67624 fps=907 q=-1.0 size= 8247552kB time=00:18:48.19 bitrate=59886.9kbitsframe=68233 fps=909 q=-1.0 size= 8322048kB time=00:18:58.35 bitrate=59888.5kbitsframe=69023 fps=913 q=-1.0 size= 8417792kB time=00:19:11.53 bitrate=59884.2kbitsframe=69907 fps=919 q=-1.0 size= 8526080kB time=00:19:26.28 bitrate=59887.5kbitsframe=70566 fps=921 q=-1.0 size= 8605952kB time=00:19:37.27 bitrate=59884.0kbitsframe=71368 fps=926 q=-1.0 size= 8704000kB time=00:19:50.65 bitrate=59885.7kbitsframe=72063 fps=929 q=-1.0 size= 8788736kB time=00:20:02.24 bitrate=59885.5kbitsframe=72863 fps=933 q=-1.0 size= 8886272kB time=00:20:15.59 bitrate=59885.3kbitsframe=73578 fps=936 q=-1.0 size= 8973312kB time=00:20:27.52 bitrate=59884.2kbitsframe=74013 fps=936 q=-1.0 size= 9026304kB time=00:20:34.78 bitrate=59883.8kbitsframe=74750 fps=939 q=-1.0 size= 9116416kB time=00:20:47.07 bitrate=59885.3kbitsframe=75453 fps=942 q=-1.0 size= 9202176kB time=00:20:58.80 bitrate=59885.5kbitsframe=75990 fps=943 q=-1.0 size= 9266944kB time=00:21:07.76 bitrate=59880.8kbitsframe=76733 fps=946 q=-1.0 size= 9358336kB time=00:21:20.16 bitrate=59885.8kbitsframe=77364 fps=948 q=-1.0 size= 9434624kB time=00:21:30.68 bitrate=59881.6kbitsframe=78045 fps=951 q=-1.0 size= 9518080kB time=00:21:42.04 bitrate=59884.1kbitsframe=78781 fps=954 q=-1.0 size= 9607936kB time=00:21:54.32 bitrate=59884.7kbitsframe=79366 fps=955 q=-1.0 size= 9679104kB time=00:22:04.08 bitrate=59883.6kbitsframe=80099 fps=958 q=-1.0 size= 9768704kB time=00:22:16.31 bitrate=59884.9kbitsframe=80823 fps=961 q=-1.0 size= 9857024kB time=00:22:28.39 bitrate=59885.0kbitsframe=81442 fps=963 q=-1.0 size= 9932032kB time=00:22:38.72 bitrate=59882.1kbitsframe=82165 fps=966 q=-1.0 size=10020096kB time=00:22:50.78 bitrate=59881.5kbitsframe=82837 fps=968 q=-1.0 size=10102528kB time=00:23:01.99 bitrate=59884.3kbitsframe=83310 fps=968 q=-1.0 size=10159872kB time=00:23:09.89 bitrate=59882.0kbitsframe=84000 fps=970 q=-1.0 size=10244096kB time=00:23:21.39 bitrate=59882.8kbitsframe=84562 fps=971 q=-1.0 size=10312448kB time=00:23:30.77 bitrate=59881.7kbitsframe=85240 fps=973 q=-1.0 size=10395648kB time=00:23:42.08 bitrate=59884.7kbitsframe=85922 fps=975 q=-1.0 size=10478336kB time=00:23:53.46 bitrate=59881.9kbitsframe=86525 fps=977 q=-1.0 size=10552320kB time=00:24:03.52 bitrate=59884.3kbitsframe=87256 fps=979 q=-1.0 size=10641408kB time=00:24:15.71 bitrate=59884.1kbitsframe=87957 fps=982 q=-1.0 size=10726656kB time=00:24:27.41 bitrate=59882.7kbitsframe=88613 fps=984 q=-1.0 size=10806528kB time=00:24:38.35 bitrate=59882.0kbitsframe=89278 fps=985 q=-1.0 size=10887936kB time=00:24:49.45 bitrate=59883.6kbitsframe=89874 fps=987 q=-1.0 size=10960384kB time=00:24:59.39 bitrate=59882.4kbitsframe=90459 fps=988 q=-1.0 size=11032064kB time=00:25:09.15 bitrate=59884.2kbitsframe=91158 fps=990 q=-1.0 size=11116800kB time=00:25:20.81 bitrate=59881.5kbitsframe=91724 fps=991 q=-1.0 size=11186432kB time=00:25:30.26 bitrate=59884.7kbitsframe=92394 fps=992 q=-1.0 size=11268096kB time=00:25:41.43 bitrate=59884.5kbitsframe=93160 fps=995 q=-1.0 size=11361536kB time=00:25:54.21 bitrate=59884.6kbitsframe=93746 fps=996 q=-1.0 size=11432960kB time=00:26:03.99 bitrate=59884.3kbitsframe=94420 fps=998 q=-1.0 size=11515392kB time=00:26:15.23 bitrate=59885.6kbitsframe=95065 fps=1000 q=-1.0 size=11593728kB time=00:26:25.99 bitrate=59883.9kbitframe=95518 fps=999 q=-1.0 size=11648768kB time=00:26:33.55 bitrate=59882.8kbits[mov,mp4,m4a,3gp,3g2,mj2 @ 0x55fb4a5fb740] Using non-standard frame rate 59/1
frame=96301 fps=1002 q=-1.0 size=11744512kB time=00:26:46.62 bitrate=59884.1kbitframe=96926 fps=1003 q=-1.0 size=11820800kB time=00:26:57.04 bitrate=59884.4kbitframe=97696 fps=1006 q=-1.0 size=11914752kB time=00:27:09.89 bitrate=59884.7kbitframe=98492 fps=1009 q=-1.0 size=12012032kB time=00:27:23.17 bitrate=59885.7kbitframe=99080 fps=1010 q=-1.0 size=12083456kB time=00:27:32.98 bitrate=59884.3kbitframe=99854 fps=1013 q=-1.0 size=12177920kB time=00:27:45.89 bitrate=59884.6kbitframe=100561 fps=1015 q=-1.0 size=12263680kB time=00:27:57.69 bitrate=59882.3kbiframe=101237 fps=1016 q=-1.0 size=12346880kB time=00:28:08.97 bitrate=59885.9kbiframe=102025 fps=1019 q=-1.0 size=12442368kB time=00:28:22.11 bitrate=59883.0kbiframe=102473 fps=1020 q=-1.0 Lsize=12500090kB time=00:28:29.58 bitrate=59897.8kbits/s speed=  17x
video:12458079kB audio:39515kB subtitle:0kB other streams:0kB global headers:0kB muxing overhead: 0.019973%
GX010079.MP4  GX020079.MP4  GX030079.MP4  GX040079.MP4


File segments: 4
```
</details>

The new merged files will be in the `merged` directory.

[modeline]: # ( vi: set textwidth=78 colorcolumn=80: )
